<svg aria-hidden="true" style="position: absolute; width: 0; height: 0; overflow: hidden;" version="1.1" xmlns="http://www.w3.org/2000/svg" xmlns:xlink="http://www.w3.org/1999/xlink">
<defs>
<symbol id="icon-Frame-1" viewBox="0 0 33 32">
<path fill="#4a56e2" style="fill: var(--color1, #4a56e2)" d="M31.568 0.58l0.015 6.141c0 0.343-0.276 0.625-0.62 0.625l-9.775 0.023c-0.344 0-0.628-0.275-0.628-0.618l-0.015-6.141c0-0.32 0.26-0.58 0.582-0.58l9.859-0.030c0.322 0 0.582 0.259 0.582 0.58z"></path>
<path fill="#ffc727" style="fill: var(--color2, #ffc727)" d="M23.224 2.502h-1.424c-0.176 0-0.322-0.145-0.322-0.32v-0.786c0-0.175 0.145-0.32 0.322-0.32h1.424c0.176 0 0.322 0.145 0.322 0.32v0.786c0 0.175-0.145 0.32-0.322 0.32z"></path>
<path fill="#fff" style="fill: var(--color3, #fff)" d="M30.297 1.838h-0.934c-0.214 0-0.39-0.175-0.39-0.389s0.176-0.389 0.39-0.389h0.934c0.214 0 0.39 0.175 0.39 0.389s-0.176 0.389-0.39 0.389z"></path>
<path fill="#f8f8f8" style="fill: var(--color4, #f8f8f8)" d="M21.41 3.806l-0.084 0.053h-0.008c-0.008 0-0.015-0.008-0.015-0.008-0.008-0.008 0-0.023 0.008-0.030l0.115-0.069c0.008-0.008 0.023 0 0.031 0.008 0 0.008 0 0.008 0 0.015v0.549c0 0.008-0.008 0.023-0.023 0.023-0.008 0-0.023-0.008-0.023-0.023v-0.519z"></path>
<path fill="#f8f8f8" style="fill: var(--color4, #f8f8f8)" d="M21.594 4.302l0.283-0.252c0.031-0.030 0.054-0.069 0.054-0.114 0-0.038-0.015-0.076-0.038-0.099-0.031-0.030-0.069-0.053-0.115-0.053-0.038 0-0.077 0.015-0.107 0.038l-0.031 0.023c-0.008 0.008-0.023 0.008-0.031 0s-0.008-0.023 0-0.030l0.031-0.030c0.038-0.030 0.084-0.053 0.13-0.053 0.053 0 0.107 0.023 0.145 0.061s0.054 0.084 0.054 0.13c0 0.053-0.023 0.107-0.061 0.145l-0.237 0.214h0.283c0.008 0 0.023 0.008 0.023 0.023 0 0.008-0.008 0.023-0.023 0.023h-0.337c-0.008 0-0.015 0-0.015-0.008-0.015 0.008-0.015-0.008-0.008-0.015z"></path>
<path fill="#f8f8f8" style="fill: var(--color4, #f8f8f8)" d="M22.467 3.776l-0.153 0.16c0.038 0.008 0.077 0.023 0.099 0.053 0.038 0.038 0.061 0.092 0.061 0.145s-0.023 0.107-0.061 0.145c-0.038 0.038-0.092 0.061-0.145 0.061s-0.107-0.023-0.145-0.061c-0.008-0.008-0.008-0.023 0-0.030s0.023-0.008 0.031 0c0.031 0.030 0.069 0.046 0.115 0.046 0.038 0 0.084-0.015 0.115-0.046s0.046-0.076 0.046-0.114c0-0.038-0.015-0.084-0.046-0.114s-0.069-0.046-0.115-0.046c-0.008 0-0.015 0-0.015-0.008-0.008-0.008-0.008-0.023 0-0.030l0.146-0.153h-0.23c-0.015 0-0.023-0.008-0.023-0.023s0.008-0.023 0.023-0.023h0.283c0.015 0 0.023 0.008 0.023 0.023 0 0-0.008 0.008-0.008 0.015z"></path>
<path fill="#f8f8f8" style="fill: var(--color4, #f8f8f8)" d="M22.972 4.211h-0.322c-0.008 0-0.008 0-0.015-0.008s-0.008-0.023 0-0.030l0.345-0.435c0.008-0.008 0.023-0.008 0.031 0l0.008 0.008v0.412h0.038c0.015 0 0.023 0.008 0.023 0.023 0 0.008-0.008 0.023-0.023 0.023h-0.038v0.099c0 0.008-0.008 0.023-0.023 0.023-0.008 0-0.023-0.008-0.023-0.023v-0.092zM22.972 4.173v-0.351l-0.283 0.351h0.283z"></path>
<path fill="#f8f8f8" style="fill: var(--color4, #f8f8f8)" d="M23.722 4.272c-0.008-0.008-0.008-0.023 0-0.030s0.023-0.008 0.031 0c0.031 0.030 0.069 0.046 0.115 0.046 0.038 0 0.084-0.015 0.115-0.046s0.046-0.069 0.046-0.114c0-0.038-0.015-0.084-0.046-0.114s-0.069-0.046-0.115-0.046c-0.038 0-0.084 0.015-0.115 0.046-0.008 0.008-0.023 0.008-0.031 0l-0.008-0.008v-0.008c0 0 0 0 0-0.008l0.031-0.244c0-0.008 0-0.015 0.008-0.015 0 0 0.008-0.008 0.015-0.008h0.283c0.015 0 0.023 0.008 0.023 0.023s-0.008 0.023-0.023 0.023h-0.26l-0.023 0.175c0.031-0.015 0.069-0.030 0.1-0.030 0.053 0 0.107 0.015 0.145 0.061 0.038 0.038 0.061 0.092 0.061 0.145s-0.015 0.107-0.061 0.145c-0.038 0.038-0.092 0.061-0.145 0.061-0.054 0.008-0.107-0.008-0.146-0.053z"></path>
<path fill="#f8f8f8" style="fill: var(--color4, #f8f8f8)" d="M24.288 3.867c0.038-0.076 0.107-0.13 0.207-0.13 0.008 0 0.023 0.008 0.023 0.023s-0.008 0.023-0.023 0.023c-0.084 0-0.138 0.046-0.176 0.107-0.023 0.038-0.031 0.076-0.046 0.122 0.038-0.038 0.092-0.069 0.145-0.069 0.107 0 0.199 0.092 0.199 0.198s-0.084 0.198-0.199 0.198c-0.107 0-0.191-0.084-0.199-0.191 0-0.015 0-0.023 0-0.038 0.015-0.092 0.031-0.175 0.069-0.244zM24.281 4.142c0 0.008 0 0.008 0 0.008v0.008c0.008 0.076 0.077 0.137 0.153 0.137 0.084 0 0.161-0.069 0.161-0.153s-0.069-0.153-0.161-0.153c-0.084-0.008-0.153 0.061-0.153 0.153z"></path>
<path fill="#f8f8f8" style="fill: var(--color4, #f8f8f8)" d="M24.855 4.302l0.222-0.526h-0.291c-0.008 0-0.023-0.008-0.023-0.023 0-0.008 0.008-0.023 0.023-0.023h0.314c0.008 0 0.008 0 0.015 0s0.008 0.008 0.008 0.015v0.008c0 0.008 0 0.008 0 0.008l-0.23 0.549c0 0.008-0.008 0.015-0.015 0.015h-0.008c-0.015 0-0.023-0.015-0.015-0.023z"></path>
<path fill="#f8f8f8" style="fill: var(--color4, #f8f8f8)" d="M25.444 3.73c0.069 0 0.122 0.053 0.122 0.122 0 0.038-0.023 0.076-0.054 0.099 0.069 0.030 0.122 0.099 0.122 0.175 0 0.107-0.084 0.191-0.191 0.191s-0.191-0.084-0.191-0.191c0-0.084 0.046-0.153 0.122-0.183-0.031-0.023-0.054-0.061-0.054-0.099 0-0.053 0.054-0.114 0.122-0.114zM25.444 4.287c0.084 0 0.153-0.069 0.153-0.153s-0.069-0.153-0.153-0.153c-0.084 0-0.153 0.069-0.153 0.153s0.069 0.153 0.153 0.153zM25.444 3.944c0.046 0 0.084-0.038 0.084-0.084s-0.038-0.084-0.084-0.084c-0.046 0-0.084 0.038-0.084 0.084s0.038 0.076 0.084 0.084z"></path>
<path fill="#f8f8f8" style="fill: var(--color4, #f8f8f8)" d="M26.508 3.73c0.099 0 0.184 0.076 0.199 0.175 0 0 0 0 0 0.008 0 0.015 0 0.030 0 0.053 0 0.076-0.015 0.168-0.053 0.236s-0.115 0.13-0.207 0.13c-0.015 0-0.023-0.008-0.023-0.023s0.008-0.023 0.023-0.023c0.084 0 0.138-0.046 0.176-0.107 0.023-0.038 0.038-0.076 0.046-0.122-0.038 0.038-0.092 0.069-0.145 0.069-0.107 0-0.199-0.084-0.199-0.198-0.015-0.114 0.077-0.198 0.184-0.198zM26.669 3.929c0-0.084-0.069-0.153-0.161-0.153-0.084 0-0.153 0.069-0.153 0.153s0.069 0.153 0.153 0.153c0.092 0 0.161-0.069 0.161-0.153z"></path>
<path fill="#f8f8f8" style="fill: var(--color4, #f8f8f8)" d="M26.861 4.028c0-0.084 0.023-0.153 0.053-0.206 0.038-0.053 0.092-0.092 0.153-0.092s0.115 0.038 0.153 0.092 0.061 0.13 0.061 0.206c0 0.084-0.023 0.153-0.061 0.206s-0.092 0.092-0.153 0.092c-0.061 0-0.115-0.038-0.153-0.092-0.031-0.053-0.053-0.13-0.053-0.206zM26.906 4.028c0 0.076 0.023 0.137 0.054 0.183s0.069 0.069 0.115 0.069c0.046 0 0.084-0.023 0.115-0.069s0.054-0.114 0.054-0.183c0-0.076-0.023-0.137-0.054-0.183s-0.069-0.069-0.115-0.069c-0.046 0-0.084 0.023-0.115 0.069-0.038 0.046-0.054 0.107-0.054 0.183z"></path>
<path fill="#f8f8f8" style="fill: var(--color4, #f8f8f8)" d="M27.557 3.784l-0.084 0.053h-0.008c-0.008 0-0.015-0.008-0.015-0.008-0.008-0.008 0-0.023 0.008-0.030l0.115-0.069c0.008-0.008 0.023 0 0.031 0.008 0 0.008 0 0.008 0 0.015v0.549c0 0.008-0.008 0.023-0.023 0.023-0.008 0-0.023-0.008-0.023-0.023v-0.519z"></path>
<path fill="#f8f8f8" style="fill: var(--color4, #f8f8f8)" d="M27.741 4.287l0.283-0.252c0.031-0.030 0.053-0.069 0.053-0.114 0-0.038-0.015-0.076-0.038-0.099-0.031-0.030-0.069-0.053-0.115-0.053-0.038 0-0.077 0.015-0.107 0.038l-0.031 0.023c-0.008 0.008-0.023 0.008-0.031 0s-0.008-0.023 0-0.030l0.031-0.030c0.038-0.030 0.084-0.053 0.13-0.053 0.054 0 0.107 0.023 0.146 0.061s0.053 0.084 0.053 0.13c0 0.053-0.023 0.107-0.061 0.145l-0.237 0.214h0.283c0.008 0 0.023 0.008 0.023 0.023 0 0.008-0.008 0.023-0.023 0.023h-0.337c-0.008 0-0.015 0-0.015-0.008-0.015 0.008-0.015-0.008-0.008-0.015z"></path>
<path fill="#f8f8f8" style="fill: var(--color4, #f8f8f8)" d="M29.126 3.761l-0.153 0.16c0.038 0.008 0.077 0.023 0.099 0.053 0.038 0.038 0.061 0.092 0.061 0.145s-0.023 0.107-0.061 0.145c-0.038 0.038-0.092 0.061-0.145 0.061s-0.107-0.023-0.145-0.061c-0.008-0.008-0.008-0.023 0-0.030s0.023-0.008 0.031 0c0.031 0.030 0.069 0.046 0.115 0.046 0.038 0 0.084-0.015 0.115-0.046s0.046-0.076 0.046-0.114c0-0.038-0.015-0.084-0.046-0.114s-0.069-0.046-0.115-0.046c-0.008 0-0.015 0-0.015-0.008-0.008-0.008-0.008-0.023 0-0.030l0.145-0.153h-0.23c-0.015 0-0.023-0.008-0.023-0.023s0.008-0.023 0.023-0.023h0.283c0.015 0 0.023 0.008 0.023 0.023 0 0 0 0.008-0.008 0.015 0 0 0-0.008 0 0z"></path>
<path fill="#f8f8f8" style="fill: var(--color4, #f8f8f8)" d="M29.631 4.195h-0.322c-0.008 0-0.008 0-0.015-0.008s-0.008-0.023 0-0.030l0.344-0.435c0.008-0.008 0.023-0.008 0.031 0l0.008 0.008v0.412h0.038c0.015 0 0.023 0.008 0.023 0.023 0 0.008-0.008 0.023-0.023 0.023h-0.038v0.099c0 0.008-0.008 0.023-0.023 0.023-0.008 0-0.023-0.008-0.023-0.023v-0.092zM29.631 4.157v-0.351l-0.283 0.351h0.283z"></path>
<path fill="#f8f8f8" style="fill: var(--color4, #f8f8f8)" d="M29.869 4.256c-0.008-0.008-0.008-0.023 0-0.030s0.023-0.008 0.031 0c0.031 0.030 0.069 0.046 0.115 0.046 0.038 0 0.084-0.015 0.115-0.046s0.046-0.069 0.046-0.114c0-0.038-0.015-0.084-0.046-0.114s-0.069-0.046-0.115-0.046c-0.038 0-0.084 0.015-0.115 0.046-0.008 0.008-0.023 0.008-0.031 0l-0.008-0.008v-0.008c0 0 0 0 0-0.008l0.031-0.244c0-0.008 0-0.015 0.008-0.015 0 0 0.008-0.008 0.015-0.008h0.283c0.015 0 0.023 0.008 0.023 0.023s-0.008 0.023-0.023 0.023h-0.26l-0.023 0.175c0.031-0.015 0.069-0.030 0.099-0.030 0.054 0 0.107 0.015 0.145 0.061 0.038 0.038 0.061 0.092 0.061 0.145s-0.015 0.107-0.061 0.145c-0.038 0.038-0.092 0.061-0.145 0.061-0.054 0.008-0.107-0.008-0.145-0.053z"></path>
<path fill="#f8f8f8" style="fill: var(--color4, #f8f8f8)" d="M30.435 3.852c0.038-0.076 0.107-0.13 0.207-0.13 0.008 0 0.023 0.008 0.023 0.023s-0.008 0.023-0.023 0.023c-0.084 0-0.138 0.046-0.176 0.107-0.023 0.038-0.031 0.076-0.046 0.122 0.038-0.038 0.092-0.069 0.145-0.069 0.107 0 0.199 0.092 0.199 0.198s-0.084 0.198-0.199 0.198c-0.107 0-0.191-0.084-0.199-0.191 0-0.015 0-0.023 0-0.038 0.015-0.092 0.031-0.175 0.069-0.244zM30.428 4.127c0 0.008 0 0.008 0 0.008v0.008c0.008 0.076 0.077 0.137 0.153 0.137 0.084 0 0.161-0.069 0.161-0.153s-0.069-0.153-0.161-0.153c-0.084-0.008-0.153 0.061-0.153 0.153z"></path>
<path fill="#24cca7" style="fill: var(--color5, #24cca7)" d="M30.753 13.052h-0.537c-1.414 0-2.56 1.146-2.56 2.56v0.517c0 1.414 1.146 2.56 2.56 2.56h0.537c1.414 0 2.56-1.146 2.56-2.56v-0.517c0-1.414-1.146-2.56-2.56-2.56z"></path>
<path fill="#fff" style="fill: var(--color3, #fff)" d="M30.581 13.959c0.107 0 0.191 0.084 0.191 0.191v0.099c0.26 0.030 0.49 0.114 0.697 0.244 0.069 0.038 0.138 0.107 0.138 0.214 0 0.137-0.115 0.244-0.253 0.244-0.046 0-0.092-0.015-0.138-0.038-0.153-0.092-0.306-0.16-0.459-0.198v0.854c0.681 0.168 0.972 0.442 0.972 0.915 0 0.488-0.383 0.816-0.949 0.87v0.267c0 0.107-0.084 0.191-0.191 0.191s-0.199-0.084-0.199-0.191v-0.275c-0.337-0.038-0.643-0.153-0.919-0.351-0.077-0.046-0.122-0.122-0.122-0.213 0-0.137 0.107-0.244 0.245-0.244 0.054 0 0.107 0.015 0.145 0.046 0.207 0.153 0.413 0.252 0.658 0.297v-0.877c-0.651-0.168-0.957-0.412-0.957-0.915 0-0.481 0.383-0.809 0.942-0.854v-0.092c0-0.099 0.092-0.183 0.199-0.183zM30.397 15.477v-0.786c-0.283 0.030-0.429 0.175-0.429 0.374 0 0.183 0.092 0.297 0.429 0.412zM30.757 16.095v0.809c0.283-0.030 0.444-0.175 0.444-0.389-0.008-0.191-0.1-0.313-0.444-0.42z"></path>
<path fill="#24cca7" style="fill: var(--color5, #24cca7)" d="M4.582 8.277h-0.537c-1.414 0-2.56 1.146-2.56 2.56v0.517c0 1.414 1.146 2.56 2.56 2.56h0.537c1.414 0 2.56-1.146 2.56-2.56v-0.517c0-1.414-1.146-2.56-2.56-2.56z"></path>
<path fill="#fff" style="fill: var(--color3, #fff)" d="M5.565 12.213h-2.641l-0.651-2.334h3.713l0.138-0.542h0.421v0.153h-0.299l-0.681 2.723zM3.047 12.060h2.404l0.505-2.029h-3.468l0.559 2.029z"></path>
<path fill="#fff" style="fill: var(--color3, #fff)" d="M3.299 12.678l-0.145-0.061 0.237-0.557h1.799l0.191 0.564-0.145 0.046-0.161-0.458h-1.577l-0.199 0.465z"></path>
<path fill="#fff" style="fill: var(--color3, #fff)" d="M3.23 12.976c-0.184 0-0.329-0.145-0.329-0.328s0.145-0.328 0.329-0.328 0.329 0.145 0.329 0.328c0 0.183-0.153 0.328-0.329 0.328zM3.23 12.472c-0.1 0-0.176 0.076-0.176 0.175s0.077 0.175 0.176 0.175c0.099 0 0.176-0.076 0.176-0.175s-0.084-0.175-0.176-0.175z"></path>
<path fill="#fff" style="fill: var(--color3, #fff)" d="M5.305 12.976c-0.184 0-0.329-0.145-0.329-0.328s0.145-0.328 0.329-0.328 0.329 0.145 0.329 0.328c0 0.183-0.145 0.328-0.329 0.328zM5.305 12.472c-0.099 0-0.176 0.076-0.176 0.175s0.077 0.175 0.176 0.175c0.1 0 0.176-0.076 0.176-0.175s-0.084-0.175-0.176-0.175z"></path>
<path fill="#263238" style="fill: var(--color6, #263238)" d="M19.902 1.625h-12.278c-0.689 0-1.24 0.564-1.24 1.259v25.188c0 0.694 0.559 1.259 1.24 1.259h12.278c0.689 0 1.24-0.564 1.24-1.259v-25.188c0-0.694-0.551-1.259-1.24-1.259zM20.369 27.293c0 0.664-0.498 1.198-1.11 1.198h-10.985c-0.612 0-1.118-0.534-1.118-1.198v-23.449c0-1.35 0.498-1.419 1.118-1.419h2.197c0.13 0 0.23 0.145 0.23 0.328v0.076c0 0.42 0.23 0.42 0.513 0.42h5.090c0.283 0 0.513 0 0.513-0.42v-0.076c0-0.183 0.099-0.328 0.23-0.328h2.197c0.612 0 1.11 0.175 1.11 1.419v23.449h0.015z"></path>
<path fill="#fff" style="fill: var(--color3, #fff)" d="M20.369 4.073v23.22c0 0.664-0.498 1.198-1.11 1.198h-10.985c-0.612 0-1.118-0.534-1.118-1.198v-23.22c0-1.35 0.498-1.648 1.118-1.648h2.197c0.13 0 0.23 0.145 0.23 0.328v0.076c0 0.42 0.23 0.42 0.513 0.42h5.090c0.283 0 0.513 0 0.513-0.42v-0.076c0-0.183 0.1-0.328 0.23-0.328h2.197c0.628 0 1.125 0.412 1.125 1.648z"></path>
<path fill="#fff" style="fill: var(--color3, #fff)" d="M14.46 2.723h-1.385c-0.046 0-0.084-0.038-0.084-0.084s0.038-0.084 0.084-0.084h1.385c0.046 0 0.084 0.038 0.084 0.084s-0.038 0.084-0.084 0.084z"></path>
<path fill="#ffd8d0" style="fill: var(--color7, #ffd8d0)" d="M10.336 5.645h-1.32c-0.566 0-1.024 0.458-1.024 1.024v1.308c0 0.566 0.458 1.024 1.024 1.024h1.32c0.566 0 1.024-0.458 1.024-1.024v-1.308c0-0.566-0.458-1.024-1.024-1.024z"></path>
<path fill="#263238" style="fill: var(--color6, #263238)" d="M10.035 7.758l-0.444-0.145c0 0-0.23 0.175-0.383-0.122 0 0-0.344 0.099-0.459-0.259 0 0-0.421-0.13-0.299-0.374 0.122-0.236 0.459 0.015 0.459 0.015s0.337-0.030 0.452 0.313c0 0 0.322 0 0.322 0.298l0.352 0.275z"></path>
<path fill="#fff" style="fill: var(--color3, #fff)" d="M8.65 6.949c0.122 0.061 0.237 0.122 0.352 0.191 0.115 0.061 0.237 0.13 0.352 0.198s0.23 0.137 0.344 0.206c0.115 0.069 0.23 0.137 0.337 0.221l-0.084-0.061-0.084-0.053-0.176-0.099-0.689-0.397c-0.122-0.069-0.237-0.137-0.352-0.206z"></path>
<path fill="#263238" style="fill: var(--color6, #263238)" d="M10.058 7.743l0.008-0.465c0 0 0.237-0.16 0.008-0.397 0 0 0.207-0.29-0.1-0.511 0 0 0.015-0.442-0.253-0.404s-0.138 0.435-0.138 0.435c0 0-0.138 0.305 0.153 0.534 0 0-0.107 0.305 0.176 0.397l0.145 0.412z"></path>
<path fill="#fff" style="fill: var(--color3, #fff)" d="M9.745 6.171c0.031 0.13 0.054 0.259 0.077 0.389l0.191 0.992 0.046 0.198c-0.038-0.13-0.069-0.259-0.1-0.389s-0.054-0.259-0.084-0.389c-0.023-0.13-0.054-0.259-0.077-0.397-0.015-0.137-0.031-0.275-0.054-0.404z"></path>
<path fill="#455a64" style="fill: var(--color8, #455a64)" d="M10.089 7.811l-0.436-0.45c0 0-0.367 0.092-0.398-0.343 0 0-0.475-0.061-0.413-0.557 0 0-0.444-0.381-0.168-0.61 0.276-0.221 0.551 0.259 0.551 0.259s0.421 0.145 0.383 0.618c0 0 0.39 0.168 0.237 0.526l0.245 0.557z"></path>
<path fill="#fff" style="fill: var(--color3, #fff)" d="M8.956 6.095c0.107 0.13 0.214 0.267 0.314 0.412 0.023 0.038 0.054 0.069 0.077 0.107l0.077 0.107c0.023 0.038 0.046 0.069 0.069 0.107s0.046 0.069 0.069 0.107 0.092 0.145 0.138 0.214l0.069 0.107 0.061 0.107c0.092 0.145 0.168 0.298 0.253 0.45l-0.122-0.214-0.138-0.214c-0.092-0.145-0.184-0.29-0.276-0.435-0.046-0.069-0.092-0.145-0.145-0.214l-0.069-0.107-0.077-0.107c-0.046-0.069-0.1-0.137-0.145-0.214-0.054-0.076-0.107-0.145-0.153-0.214z"></path>
<path fill="#fff" style="fill: var(--color3, #fff)" d="M10.786 7.804c0.008 0.008 0.015 0.023 0.023 0.030 0.214 0.336-0.069 0.595-0.077 0.717s0.084 0.198 0.031 0.244c-0.054 0.038-0.1-0.076-0.222-0.107-0.092-0.023-0.337 0.084-0.551-0.030-0.015-0.008-0.038-0.023-0.054-0.030-0.038-0.023-0.069-0.053-0.1-0.099-0.008-0.008-0.015-0.023-0.023-0.030s-0.008-0.008-0.015-0.015c-0.092-0.137-0.13-0.267-0.122-0.381 0-0.023 0.008-0.053 0.008-0.076 0.031-0.153 0.122-0.275 0.253-0.366 0.207-0.145 0.482-0.183 0.704 0.008 0.015 0.015 0.031 0.023 0.046 0.038 0.031 0.030 0.054 0.061 0.084 0.092 0.008 0 0.015 0 0.015 0.008z"></path>
<path fill="#dbdbdb" style="fill: var(--color9, #dbdbdb)" d="M10.005 8.338l0.031 0.046-0.199 0.137c-0.008-0.008-0.015-0.023-0.023-0.030s-0.008-0.008-0.015-0.015l0.207-0.137z"></path>
<path fill="#dbdbdb" style="fill: var(--color9, #dbdbdb)" d="M10.786 7.804c0.008 0.008 0.015 0.023 0.023 0.030l-0.199 0.137-0.031-0.046 0.199-0.137c0 0.008 0.008 0.008 0.008 0.015z"></path>
<path fill="#a6a6a6" style="fill: var(--color10, #a6a6a6)" d="M9.056 9.276c0.008 0 0.015 0.008 0.015 0.015v0.023c0.046 0 0.077 0.015 0.107 0.046 0.008 0.008 0.008 0.008 0.008 0.015s-0.008 0.015-0.015 0.015c0 0-0.008 0-0.008-0.008-0.031-0.023-0.061-0.038-0.092-0.038v0.168c0.092 0.023 0.13 0.053 0.13 0.114s-0.054 0.107-0.13 0.114v0.046c0 0.008-0.008 0.015-0.015 0.015s-0.015-0.008-0.015-0.015v-0.046c-0.054-0.008-0.1-0.023-0.138-0.061-0.008 0-0.008-0.008-0.008-0.015s0.008-0.015 0.015-0.015c0.008 0 0.008 0 0.008 0.008 0.031 0.030 0.069 0.053 0.122 0.053v-0.175c-0.092-0.023-0.13-0.053-0.13-0.114s0.054-0.107 0.13-0.107v-0.023c0.008-0.015 0.008-0.015 0.015-0.015zM9.048 9.505v-0.168c-0.061 0-0.1 0.038-0.1 0.084 0 0.038 0.015 0.061 0.1 0.084zM9.071 9.543v0.168c0.061 0 0.1-0.038 0.1-0.084s-0.015-0.069-0.1-0.084z"></path>
<path fill="#a6a6a6" style="fill: var(--color10, #a6a6a6)" d="M9.285 9.711l0.199-0.183c0.023-0.023 0.038-0.053 0.038-0.084 0-0.023-0.008-0.053-0.031-0.076s-0.054-0.038-0.084-0.038c-0.031 0-0.054 0.008-0.077 0.030l-0.023 0.015c-0.008 0.008-0.015 0.008-0.023 0s-0.008-0.015 0-0.023l0.023-0.023c0.031-0.023 0.061-0.038 0.092-0.038 0.038 0 0.077 0.015 0.1 0.046s0.038 0.061 0.038 0.092c0 0.038-0.015 0.076-0.046 0.107l-0.168 0.153h0.199c0.008 0 0.015 0.008 0.015 0.015s-0.008 0.015-0.015 0.015h-0.237c-0.008 0-0.008 0-0.008-0.008 0 0.015 0 0.008 0.008 0z"></path>
<path fill="#a6a6a6" style="fill: var(--color10, #a6a6a6)" d="M9.798 9.695c-0.008-0.008-0.008-0.015 0-0.023s0.015-0.008 0.023 0c0.023 0.023 0.054 0.030 0.084 0.030s0.061-0.008 0.084-0.030c0.023-0.023 0.031-0.053 0.031-0.084s-0.008-0.061-0.031-0.084c-0.023-0.023-0.054-0.030-0.084-0.030s-0.061 0.008-0.084 0.030c-0.008 0.008-0.015 0.008-0.023 0 0 0 0 0 0-0.008 0 0 0 0 0-0.008l0.023-0.175c0-0.008 0-0.008 0.008-0.008h0.207c0.008 0 0.015 0.008 0.015 0.015s-0.008 0.015-0.015 0.015h-0.184l-0.015 0.13c0.023-0.015 0.046-0.023 0.077-0.023 0.038 0 0.077 0.015 0.1 0.046 0.031 0.030 0.046 0.061 0.046 0.099s-0.015 0.076-0.046 0.099c-0.031 0.030-0.069 0.046-0.1 0.046-0.054 0-0.092-0.008-0.115-0.038z"></path>
<path fill="#a6a6a6" style="fill: var(--color10, #a6a6a6)" d="M10.165 9.52c0-0.061 0.015-0.107 0.038-0.153 0.023-0.038 0.061-0.061 0.107-0.061s0.084 0.023 0.107 0.061c0.023 0.038 0.038 0.092 0.038 0.153s-0.015 0.107-0.038 0.153c-0.023 0.038-0.061 0.061-0.107 0.061s-0.084-0.023-0.107-0.061c-0.031-0.038-0.038-0.092-0.038-0.153zM10.188 9.52c0 0.053 0.015 0.099 0.038 0.13s0.054 0.053 0.084 0.053c0.031 0 0.061-0.015 0.084-0.053 0.023-0.030 0.038-0.076 0.038-0.13s-0.015-0.099-0.038-0.13c-0.023-0.030-0.054-0.053-0.084-0.053s-0.061 0.015-0.084 0.053c-0.023 0.030-0.038 0.084-0.038 0.13z"></path>
<path fill="#ffd8d0" style="fill: var(--color7, #ffd8d0)" d="M14.316 5.645h-1.32c-0.566 0-1.024 0.458-1.024 1.024v1.308c0 0.566 0.458 1.024 1.024 1.024h1.32c0.566 0 1.024-0.458 1.024-1.024v-1.308c0-0.566-0.459-1.024-1.024-1.024z"></path>
<path fill="#fff" style="fill: var(--color3, #fff)" d="M14.245 7.773c0.429 0.435 0.857 0.885 0.857 0.885-0.023 0.114-0.153 0.145-0.153 0.145s-0.444-0.45-0.865-0.87c-0.015-0.015-0.031-0.030-0.046-0.046-0.008-0.008-0.023-0.023-0.031-0.030-0.031-0.030-0.061-0.061-0.092-0.092-0.008-0.008-0.023-0.023-0.031-0.030-0.061-0.061-0.123-0.122-0.176-0.183-0.008-0.008-0.023-0.023-0.031-0.030-0.176-0.175-0.306-0.305-0.344-0.351-0.191-0.198-1.133-0.603-1.133-0.603s-0.077-0.053 0.023-0.183c0 0 0.367 0.175 0.704 0.343l-0.796-0.503c0 0-0.008-0.076 0.069-0.137l0.452 0.298-0.406-0.389c0 0 0.008-0.061 0.122-0.114l0.704 0.725-0.498-0.656c0 0 0.054-0.069 0.122-0.092 0 0 0.306 0.465 0.743 1.037l-0.452-0.77c0 0 0.038-0.053 0.123-0.061 0 0 0.36 0.847 0.735 1.282 0.008 0.008 0.015 0.023 0.031 0.030 0.015 0.015 0.031 0.030 0.038 0.046 0.046 0.046 0.092 0.092 0.138 0.137 0.008 0.008 0.023 0.023 0.031 0.030 0.031 0.030 0.061 0.061 0.092 0.092 0.008 0.008 0.023 0.023 0.031 0.030 0.008 0.030 0.023 0.046 0.038 0.061z"></path>
<path fill="#455a64" style="fill: var(--color8, #455a64)" d="M13.105 6.087c0 0 0.36 0.847 0.735 1.282l-0.161 0.153c-0.176-0.175-0.306-0.305-0.344-0.351-0.191-0.198-1.133-0.603-1.133-0.603s-0.077-0.053 0.023-0.183c0 0 0.367 0.175 0.704 0.343l-0.796-0.503c0 0-0.008-0.076 0.069-0.137l0.452 0.298-0.406-0.389c0 0 0.008-0.061 0.122-0.114l0.704 0.725-0.498-0.656c0 0 0.054-0.069 0.122-0.092 0 0 0.306 0.465 0.743 1.037l-0.452-0.77c-0.008 0.023 0.023-0.030 0.115-0.038z"></path>
<path fill="#455a64" style="fill: var(--color8, #455a64)" d="M14.046 7.582l-0.161 0.153c-0.061-0.061-0.123-0.122-0.176-0.183l0.161-0.153c0.015 0.015 0.031 0.030 0.038 0.046 0.046 0.046 0.092 0.092 0.138 0.137z"></path>
<path fill="#a6a6a6" style="fill: var(--color10, #a6a6a6)" d="M13.074 9.276c0.008 0 0.015 0.008 0.015 0.015v0.023c0.046 0 0.077 0.015 0.107 0.046 0.008 0.008 0.008 0.008 0.008 0.015s-0.008 0.015-0.015 0.015c0 0-0.008 0-0.008-0.008-0.031-0.023-0.061-0.038-0.092-0.038v0.168c0.092 0.023 0.13 0.053 0.13 0.114s-0.053 0.107-0.13 0.114v0.046c0 0.008-0.008 0.015-0.015 0.015s-0.015-0.008-0.015-0.015v-0.046c-0.053-0.008-0.099-0.023-0.138-0.061-0.008 0-0.008-0.008-0.008-0.015s0.008-0.015 0.015-0.015c0.008 0 0.008 0 0.008 0.008 0.031 0.030 0.069 0.053 0.123 0.053v-0.175c-0.092-0.023-0.13-0.053-0.13-0.114s0.053-0.107 0.13-0.107v-0.023c0-0.015 0-0.015 0.015-0.015zM13.059 9.505v-0.168c-0.061 0-0.099 0.038-0.099 0.084 0 0.038 0.015 0.061 0.099 0.084zM13.082 9.543v0.168c0.061 0 0.099-0.038 0.099-0.084s-0.015-0.069-0.099-0.084z"></path>
<path fill="#a6a6a6" style="fill: var(--color10, #a6a6a6)" d="M13.365 9.352l-0.061 0.038h-0.008c-0.008 0-0.008 0-0.015-0.008s0-0.015 0.008-0.023l0.084-0.053c0.008 0 0.015 0 0.023 0.008v0.397c0 0.008-0.008 0.015-0.015 0.015s-0.015-0.008-0.015-0.015v-0.359z"></path>
<path fill="#a6a6a6" style="fill: var(--color10, #a6a6a6)" d="M13.633 9.52c0-0.061 0.015-0.107 0.038-0.153 0.023-0.038 0.061-0.061 0.107-0.061s0.084 0.023 0.107 0.061c0.023 0.038 0.038 0.092 0.038 0.153s-0.015 0.107-0.038 0.153c-0.023 0.038-0.061 0.061-0.107 0.061s-0.084-0.023-0.107-0.061c-0.023-0.038-0.038-0.092-0.038-0.153zM13.664 9.52c0 0.053 0.015 0.099 0.038 0.13s0.053 0.053 0.084 0.053c0.031 0 0.061-0.015 0.084-0.053 0.023-0.030 0.038-0.076 0.038-0.13s-0.015-0.099-0.038-0.13c-0.023-0.030-0.053-0.053-0.084-0.053s-0.061 0.015-0.084 0.053c-0.023 0.030-0.038 0.084-0.038 0.13z"></path>
<path fill="#a6a6a6" style="fill: var(--color10, #a6a6a6)" d="M14.069 9.52c0-0.061 0.015-0.107 0.038-0.153 0.023-0.038 0.061-0.061 0.107-0.061s0.084 0.023 0.107 0.061c0.023 0.038 0.038 0.092 0.038 0.153s-0.015 0.107-0.038 0.153c-0.023 0.038-0.061 0.061-0.107 0.061s-0.084-0.023-0.107-0.061c-0.023-0.038-0.038-0.092-0.038-0.153zM14.1 9.52c0 0.053 0.015 0.099 0.038 0.13s0.054 0.053 0.084 0.053c0.031 0 0.061-0.015 0.084-0.053 0.023-0.030 0.038-0.076 0.038-0.13s-0.015-0.099-0.038-0.13c-0.023-0.030-0.053-0.053-0.084-0.053s-0.061 0.015-0.084 0.053c-0.023 0.030-0.038 0.084-0.038 0.13z"></path>
<path fill="#ffd8d0" style="fill: var(--color7, #ffd8d0)" d="M18.289 5.645h-1.32c-0.566 0-1.024 0.458-1.024 1.024v1.308c0 0.566 0.459 1.024 1.024 1.024h1.32c0.566 0 1.024-0.458 1.024-1.024v-1.308c0-0.566-0.458-1.024-1.024-1.024z"></path>
<path fill="#a6a6a6" style="fill: var(--color10, #a6a6a6)" d="M17.055 9.276c0.008 0 0.015 0.008 0.015 0.015v0.023c0.046 0 0.077 0.015 0.107 0.046 0.008 0.008 0.008 0.008 0.008 0.015s-0.008 0.015-0.015 0.015c0 0-0.008 0-0.008-0.008-0.031-0.023-0.061-0.038-0.092-0.038v0.168c0.092 0.023 0.13 0.053 0.13 0.114s-0.054 0.107-0.13 0.114v0.046c0 0.008-0.008 0.015-0.015 0.015s-0.015-0.008-0.015-0.015v-0.046c-0.054-0.008-0.1-0.023-0.138-0.061-0.008 0-0.008-0.008-0.008-0.015s0.008-0.015 0.015-0.015c0.008 0 0.008 0 0.008 0.008 0.031 0.030 0.069 0.053 0.122 0.053v-0.175c-0.092-0.023-0.13-0.053-0.13-0.114s0.054-0.107 0.13-0.107v-0.023c0-0.015 0.008-0.015 0.015-0.015zM17.040 9.505v-0.168c-0.061 0-0.1 0.038-0.1 0.084 0.008 0.038 0.023 0.061 0.1 0.084zM17.070 9.543v0.168c0.061 0 0.1-0.038 0.1-0.084s-0.023-0.069-0.1-0.084z"></path>
<path fill="#a6a6a6" style="fill: var(--color10, #a6a6a6)" d="M17.353 9.352l-0.061 0.038h-0.008c-0.008 0-0.008 0-0.015-0.008s0-0.015 0.008-0.023l0.084-0.053c0.008 0 0.015 0 0.023 0.008v0.397c0 0.008-0.008 0.015-0.015 0.015s-0.015-0.008-0.015-0.015v-0.359z"></path>
<path fill="#a6a6a6" style="fill: var(--color10, #a6a6a6)" d="M17.636 9.695c-0.008-0.008-0.008-0.015 0-0.023s0.015-0.008 0.023 0c0.023 0.023 0.053 0.030 0.084 0.030s0.061-0.008 0.084-0.030c0.023-0.023 0.031-0.053 0.031-0.084s-0.008-0.061-0.031-0.084c-0.023-0.023-0.054-0.030-0.084-0.030s-0.061 0.008-0.084 0.030c-0.008 0.008-0.015 0.008-0.023 0 0 0 0 0 0-0.008 0 0 0 0 0-0.008l0.023-0.175c0-0.008 0-0.008 0.008-0.008h0.207c0.008 0 0.015 0.008 0.015 0.015s-0.008 0.015-0.015 0.015h-0.191l-0.015 0.13c0.023-0.015 0.046-0.023 0.077-0.023 0.038 0 0.077 0.015 0.099 0.046 0.031 0.030 0.046 0.061 0.046 0.099s-0.015 0.076-0.046 0.099c-0.031 0.030-0.069 0.046-0.099 0.046-0.046 0-0.077-0.008-0.107-0.038z"></path>
<path fill="#a6a6a6" style="fill: var(--color10, #a6a6a6)" d="M18.004 9.52c0-0.061 0.015-0.107 0.038-0.153 0.023-0.038 0.061-0.061 0.107-0.061s0.084 0.023 0.107 0.061c0.023 0.038 0.038 0.092 0.038 0.153s-0.015 0.107-0.038 0.153c-0.023 0.038-0.061 0.061-0.107 0.061s-0.084-0.023-0.107-0.061c-0.023-0.038-0.038-0.092-0.038-0.153zM18.035 9.52c0 0.053 0.015 0.099 0.038 0.13s0.054 0.053 0.084 0.053 0.061-0.015 0.084-0.053c0.023-0.030 0.038-0.076 0.038-0.13s-0.015-0.099-0.038-0.13c-0.023-0.030-0.054-0.053-0.084-0.053s-0.061 0.015-0.084 0.053c-0.023 0.030-0.038 0.084-0.038 0.13z"></path>
<path fill="#ffd8d0" style="fill: var(--color7, #ffd8d0)" d="M10.336 10.542h-1.32c-0.566 0-1.024 0.458-1.024 1.024v1.308c0 0.566 0.458 1.024 1.024 1.024h1.32c0.566 0 1.024-0.459 1.024-1.024v-1.308c0-0.566-0.458-1.024-1.024-1.024z"></path>
<path fill="#fff" style="fill: var(--color3, #fff)" d="M10.61 11.93v1.655c0 0.099-0.207 0.16-0.903 0.16s-0.896-0.061-0.896-0.16v-1.655c0-0.442 0.49-0.725 0.49-0.816s0-0.336 0-0.336h0.819c0 0 0 0.244 0 0.336s0.49 0.374 0.49 0.816z"></path>
<path fill="#a6a6a6" style="fill: var(--color10, #a6a6a6)" d="M9.025 14.196c0.008 0 0.015 0.008 0.015 0.015v0.023c0.046 0 0.077 0.015 0.107 0.046 0.008 0.008 0.008 0.008 0.008 0.015s-0.008 0.015-0.015 0.015c0 0-0.008 0-0.008-0.008-0.031-0.023-0.061-0.038-0.092-0.038v0.168c0.092 0.023 0.13 0.053 0.13 0.114s-0.054 0.107-0.13 0.114v0.046c0 0.008-0.008 0.015-0.015 0.015s-0.015-0.008-0.015-0.015v-0.046c-0.054-0.008-0.1-0.023-0.138-0.061-0.008 0-0.008-0.008-0.008-0.015s0.008-0.015 0.015-0.015 0.008 0 0.008 0.008c0.031 0.030 0.069 0.053 0.122 0.053v-0.175c-0.092-0.023-0.13-0.053-0.13-0.114s0.054-0.107 0.13-0.107v-0.023c0-0.008 0.008-0.015 0.015-0.015zM9.017 14.425v-0.168c-0.061 0-0.1 0.038-0.1 0.084 0 0.038 0.015 0.069 0.1 0.084zM9.040 14.463v0.168c0.061 0 0.1-0.038 0.1-0.084 0-0.038-0.023-0.069-0.1-0.084z"></path>
<path fill="#a6a6a6" style="fill: var(--color10, #a6a6a6)" d="M9.507 14.257l-0.107 0.114c0.031 0.008 0.054 0.015 0.077 0.038 0.031 0.031 0.046 0.069 0.046 0.099 0 0.038-0.015 0.076-0.046 0.099-0.031 0.030-0.069 0.046-0.1 0.046-0.038 0-0.077-0.015-0.1-0.046-0.008-0.008-0.008-0.015 0-0.023s0.015-0.008 0.023 0c0.023 0.023 0.054 0.031 0.084 0.031s0.061-0.008 0.084-0.031c0.023-0.023 0.031-0.053 0.031-0.084s-0.008-0.061-0.031-0.084-0.054-0.030-0.084-0.030c-0.008 0-0.008 0-0.015-0.008s-0.008-0.015 0-0.023l0.107-0.107h-0.161c-0.008 0-0.015-0.008-0.015-0.015s0.008-0.015 0.015-0.015h0.199c0.008 0 0.015 0.008 0.015 0.015-0.015 0.015-0.015 0.015-0.023 0.023 0.008 0 0.008 0 0 0z"></path>
<path fill="#a6a6a6" style="fill: var(--color10, #a6a6a6)" d="M9.76 14.448c0-0.061 0.015-0.107 0.038-0.153 0.023-0.038 0.061-0.061 0.107-0.061s0.084 0.023 0.107 0.061c0.023 0.038 0.038 0.092 0.038 0.153s-0.015 0.107-0.038 0.153c-0.023 0.038-0.061 0.061-0.107 0.061s-0.084-0.023-0.107-0.061c-0.023-0.046-0.038-0.099-0.038-0.153zM9.79 14.448c0 0.053 0.015 0.099 0.038 0.13s0.054 0.053 0.084 0.053 0.061-0.015 0.084-0.053c0.023-0.030 0.038-0.076 0.038-0.13s-0.015-0.099-0.038-0.13c-0.023-0.030-0.054-0.053-0.084-0.053s-0.061 0.015-0.084 0.053c-0.023 0.031-0.038 0.076-0.038 0.13z"></path>
<path fill="#a6a6a6" style="fill: var(--color10, #a6a6a6)" d="M10.196 14.448c0-0.061 0.015-0.107 0.038-0.153 0.023-0.038 0.061-0.061 0.107-0.061s0.084 0.023 0.107 0.061c0.023 0.038 0.038 0.092 0.038 0.153s-0.015 0.107-0.038 0.153c-0.023 0.038-0.061 0.061-0.107 0.061s-0.084-0.023-0.107-0.061c-0.023-0.046-0.038-0.099-0.038-0.153zM10.227 14.448c0 0.053 0.015 0.099 0.038 0.13s0.054 0.053 0.084 0.053 0.061-0.015 0.084-0.053c0.023-0.030 0.038-0.076 0.038-0.13s-0.015-0.099-0.038-0.13c-0.023-0.030-0.054-0.053-0.084-0.053s-0.061 0.015-0.084 0.053c-0.023 0.031-0.038 0.076-0.038 0.13z"></path>
<path fill="#ffd8d0" style="fill: var(--color7, #ffd8d0)" d="M14.316 10.542h-1.32c-0.566 0-1.024 0.458-1.024 1.024v1.308c0 0.566 0.458 1.024 1.024 1.024h1.32c0.566 0 1.024-0.459 1.024-1.024v-1.308c0-0.566-0.459-1.024-1.024-1.024z"></path>
<path fill="#a6a6a6" style="fill: var(--color10, #a6a6a6)" d="M13.021 14.196c0.008 0 0.015 0.008 0.015 0.015v0.023c0.046 0 0.077 0.015 0.107 0.046 0.008 0.008 0.008 0.008 0.008 0.015s-0.008 0.015-0.015 0.015c0 0-0.008 0-0.008-0.008-0.031-0.023-0.061-0.038-0.092-0.038v0.168c0.092 0.023 0.13 0.053 0.13 0.114s-0.054 0.107-0.13 0.114v0.046c0 0.008-0.008 0.015-0.015 0.015s-0.015-0.008-0.015-0.015v-0.046c-0.054-0.008-0.1-0.023-0.138-0.061-0.008 0-0.008-0.008-0.008-0.015s0.008-0.015 0.015-0.015 0.008 0 0.008 0.008c0.031 0.030 0.069 0.053 0.123 0.053v-0.175c-0.092-0.023-0.13-0.053-0.13-0.114s0.054-0.107 0.13-0.107v-0.023c0-0.008 0.008-0.015 0.015-0.015zM13.005 14.425v-0.168c-0.061 0-0.1 0.038-0.1 0.084 0 0.038 0.023 0.069 0.1 0.084zM13.028 14.463v0.168c0.061 0 0.1-0.038 0.1-0.084 0.008-0.038-0.015-0.069-0.1-0.084z"></path>
<path fill="#a6a6a6" style="fill: var(--color10, #a6a6a6)" d="M13.243 14.631l0.199-0.183c0.023-0.023 0.038-0.053 0.038-0.084 0-0.023-0.008-0.053-0.031-0.076s-0.053-0.038-0.084-0.038c-0.031 0-0.054 0.008-0.077 0.030l-0.023 0.015c-0.008 0.008-0.015 0.008-0.023 0s-0.008-0.015 0-0.023l0.023-0.023c0.031-0.023 0.061-0.038 0.092-0.038 0.038 0 0.077 0.015 0.099 0.046s0.038 0.061 0.038 0.092c0 0.038-0.015 0.076-0.046 0.107l-0.168 0.153h0.199c0.008 0 0.015 0.008 0.015 0.015s-0.008 0.015-0.015 0.015h-0.237c-0.008 0-0.008 0-0.008-0.008 0 0.015 0 0.008 0.008 0z"></path>
<path fill="#a6a6a6" style="fill: var(--color10, #a6a6a6)" d="M13.756 14.615c-0.008-0.008-0.008-0.015 0-0.023s0.015-0.008 0.023 0c0.023 0.023 0.053 0.030 0.084 0.030s0.061-0.008 0.084-0.030c0.023-0.023 0.031-0.053 0.031-0.084s-0.008-0.061-0.031-0.084c-0.023-0.023-0.053-0.031-0.084-0.031s-0.061 0.008-0.084 0.031c-0.008 0.008-0.015 0.008-0.023 0 0 0 0 0 0-0.008 0 0 0 0 0-0.008l0.023-0.175c0-0.008 0-0.008 0.008-0.008h0.207c0.008 0 0.015 0.008 0.015 0.015s-0.008 0.015-0.015 0.015h-0.184l-0.015 0.13c0.023-0.015 0.046-0.023 0.077-0.023 0.038 0 0.077 0.015 0.1 0.046 0.031 0.031 0.046 0.061 0.046 0.099s-0.015 0.076-0.046 0.099c-0.031 0.030-0.069 0.046-0.1 0.046-0.053 0.008-0.092-0.008-0.115-0.038z"></path>
<path fill="#a6a6a6" style="fill: var(--color10, #a6a6a6)" d="M14.123 14.448c0-0.061 0.015-0.107 0.038-0.153 0.023-0.038 0.061-0.061 0.107-0.061s0.084 0.023 0.107 0.061c0.023 0.038 0.038 0.092 0.038 0.153s-0.015 0.107-0.038 0.153c-0.023 0.038-0.061 0.061-0.107 0.061s-0.084-0.023-0.107-0.061c-0.023-0.046-0.038-0.099-0.038-0.153zM14.154 14.448c0 0.053 0.015 0.099 0.038 0.13s0.054 0.053 0.084 0.053 0.061-0.015 0.084-0.053c0.023-0.030 0.038-0.076 0.038-0.13s-0.015-0.099-0.038-0.13c-0.023-0.030-0.054-0.053-0.084-0.053s-0.061 0.015-0.084 0.053c-0.023 0.031-0.038 0.076-0.038 0.13z"></path>
<path fill="#ffd8d0" style="fill: var(--color7, #ffd8d0)" d="M18.289 10.542h-1.32c-0.566 0-1.024 0.458-1.024 1.024v1.308c0 0.566 0.459 1.024 1.024 1.024h1.32c0.566 0 1.024-0.459 1.024-1.024v-1.308c0-0.566-0.458-1.024-1.024-1.024z"></path>
<path fill="#fff" style="fill: var(--color3, #fff)" d="M18.28 11.93v1.655c0 0.099-0.145 0.16-0.651 0.16-0.498 0-0.651-0.061-0.651-0.16v-1.655c0-0.442 0.352-0.725 0.352-0.816 0-0.084 0-0.336 0-0.336h0.589c0 0 0 0.244 0 0.336 0.008 0.092 0.36 0.374 0.36 0.816z"></path>
<path fill="#a6a6a6" style="fill: var(--color10, #a6a6a6)" d="M16.955 14.196c0.008 0 0.015 0.008 0.015 0.015v0.023c0.046 0 0.077 0.015 0.107 0.046 0.008 0.008 0.008 0.008 0.008 0.015s-0.008 0.015-0.015 0.015c0 0-0.008 0-0.008-0.008-0.031-0.023-0.061-0.038-0.092-0.038v0.168c0.092 0.023 0.13 0.053 0.13 0.114s-0.053 0.107-0.13 0.114v0.046c0 0.008-0.008 0.015-0.015 0.015s-0.015-0.008-0.015-0.015v-0.046c-0.053-0.008-0.099-0.023-0.138-0.061-0.008 0-0.008-0.008-0.008-0.015s0.008-0.015 0.015-0.015 0.008 0 0.008 0.008c0.031 0.030 0.069 0.053 0.122 0.053v-0.175c-0.092-0.023-0.13-0.053-0.13-0.114s0.053-0.107 0.13-0.107v-0.023c0-0.008 0.008-0.015 0.015-0.015zM16.94 14.425v-0.168c-0.061 0-0.099 0.038-0.099 0.084 0 0.038 0.023 0.069 0.099 0.084zM16.963 14.463v0.168c0.061 0 0.099-0.038 0.099-0.084 0.008-0.038-0.015-0.069-0.099-0.084z"></path>
<path fill="#a6a6a6" style="fill: var(--color10, #a6a6a6)" d="M17.177 14.631l0.199-0.183c0.023-0.023 0.038-0.053 0.038-0.084 0-0.023-0.008-0.053-0.031-0.076s-0.054-0.038-0.084-0.038c-0.031 0-0.054 0.008-0.077 0.030l-0.023 0.015c-0.008 0.008-0.015 0.008-0.023 0s-0.008-0.015 0-0.023l0.023-0.023c0.031-0.023 0.061-0.038 0.092-0.038 0.038 0 0.077 0.015 0.1 0.046s0.038 0.061 0.038 0.092c0 0.038-0.015 0.076-0.046 0.107l-0.168 0.153h0.199c0.008 0 0.015 0.008 0.015 0.015s-0.008 0.015-0.015 0.015h-0.237c-0.008 0-0.008 0-0.008-0.008 0 0.015 0 0.008 0.008 0z"></path>
<path fill="#a6a6a6" style="fill: var(--color10, #a6a6a6)" d="M17.675 14.448c0-0.061 0.015-0.107 0.038-0.153 0.023-0.038 0.061-0.061 0.107-0.061s0.084 0.023 0.107 0.061c0.023 0.038 0.038 0.092 0.038 0.153s-0.015 0.107-0.038 0.153c-0.023 0.038-0.061 0.061-0.107 0.061s-0.084-0.023-0.107-0.061c-0.023-0.046-0.038-0.099-0.038-0.153zM17.705 14.448c0 0.053 0.015 0.099 0.038 0.13s0.053 0.053 0.084 0.053c0.031 0 0.061-0.015 0.084-0.053 0.023-0.030 0.038-0.076 0.038-0.13s-0.015-0.099-0.038-0.13c-0.023-0.030-0.053-0.053-0.084-0.053s-0.061 0.015-0.084 0.053c-0.031 0.031-0.038 0.076-0.038 0.13z"></path>
<path fill="#a6a6a6" style="fill: var(--color10, #a6a6a6)" d="M18.103 14.448c0-0.061 0.015-0.107 0.038-0.153 0.023-0.038 0.061-0.061 0.107-0.061s0.084 0.023 0.107 0.061c0.023 0.038 0.038 0.092 0.038 0.153s-0.015 0.107-0.038 0.153c-0.023 0.038-0.061 0.061-0.107 0.061s-0.084-0.023-0.107-0.061c-0.023-0.046-0.038-0.099-0.038-0.153zM18.134 14.448c0 0.053 0.015 0.099 0.038 0.13s0.053 0.053 0.084 0.053c0.031 0 0.061-0.015 0.084-0.053 0.023-0.030 0.038-0.076 0.038-0.13s-0.015-0.099-0.038-0.13c-0.023-0.030-0.053-0.053-0.084-0.053s-0.061 0.015-0.084 0.053c-0.023 0.031-0.038 0.076-0.038 0.13z"></path>
<path fill="#ffd8d0" style="fill: var(--color7, #ffd8d0)" d="M10.336 16.82h-1.32c-0.566 0-1.024 0.459-1.024 1.024v1.308c0 0.566 0.458 1.024 1.024 1.024h1.32c0.566 0 1.024-0.459 1.024-1.024v-1.308c0-0.566-0.458-1.024-1.024-1.024z"></path>
<path fill="#fff" style="fill: var(--color3, #fff)" d="M8.895 18.552c0 0.587 0.237 1.51 0.268 1.51h0.987c0.031 0 0.367-0.786 0.367-1.579 0-0.824-0.574-0.969-0.574-1.022v-0.145c0-0.084 0-0.183 0-0.183h-0.582c0 0 0 0.092 0 0.183v0.137c0 0.061-0.467 0.366-0.467 1.098zM10.005 17.728c0.283 0 0.513 0.77 0.306 0.847-0.291 0.107-0.566-0.847-0.306-0.847z"></path>
<path fill="#a6a6a6" style="fill: var(--color10, #a6a6a6)" d="M9.025 20.596c0.008 0 0.015 0.008 0.015 0.015v0.023c0.046 0 0.077 0.015 0.107 0.046 0.008 0.008 0.008 0.008 0.008 0.015s-0.008 0.015-0.015 0.015c0 0-0.008 0-0.008-0.008-0.031-0.023-0.061-0.038-0.092-0.038v0.168c0.092 0.023 0.13 0.053 0.13 0.114s-0.054 0.107-0.13 0.114v0.046c0 0.008-0.008 0.015-0.015 0.015s-0.015-0.008-0.015-0.015v-0.046c-0.054-0.008-0.1-0.023-0.138-0.061-0.008 0-0.008-0.008-0.008-0.015s0.008-0.015 0.015-0.015c0.008 0 0.008 0 0.008 0.008 0.031 0.031 0.069 0.053 0.122 0.053v-0.175c-0.092-0.023-0.13-0.053-0.13-0.114s0.054-0.107 0.13-0.107v-0.023c0.008-0.008 0.008-0.015 0.015-0.015zM9.017 20.832v-0.168c-0.061 0-0.1 0.038-0.1 0.084 0 0.038 0.015 0.061 0.1 0.084zM9.040 20.871v0.168c0.061 0 0.1-0.038 0.1-0.084s-0.015-0.069-0.1-0.084z"></path>
<path fill="#a6a6a6" style="fill: var(--color10, #a6a6a6)" d="M9.262 21.023c-0.008-0.008-0.008-0.015 0-0.023s0.015-0.008 0.023 0c0.023 0.023 0.054 0.031 0.084 0.031s0.061-0.008 0.084-0.031c0.023-0.023 0.031-0.053 0.031-0.084s-0.008-0.061-0.031-0.084-0.054-0.030-0.084-0.030c-0.031 0-0.061 0.008-0.084 0.030-0.008 0.008-0.015 0.008-0.023 0 0 0 0 0 0-0.008 0 0 0 0 0-0.008l0.023-0.175c0-0.008 0-0.008 0.008-0.008h0.207c0.008 0 0.015 0.008 0.015 0.015s-0.008 0.015-0.015 0.015h-0.184l-0.015 0.13c0.023-0.015 0.046-0.023 0.077-0.023 0.038 0 0.077 0.015 0.1 0.046 0.031 0.030 0.046 0.061 0.046 0.099s-0.015 0.076-0.046 0.099c-0.031 0.031-0.069 0.046-0.1 0.046-0.046 0-0.084-0.008-0.115-0.038z"></path>
<path fill="#a6a6a6" style="fill: var(--color10, #a6a6a6)" d="M9.76 20.848c0-0.061 0.015-0.107 0.038-0.153 0.023-0.038 0.061-0.061 0.107-0.061s0.084 0.023 0.107 0.061c0.023 0.038 0.038 0.092 0.038 0.153s-0.015 0.107-0.038 0.153c-0.023 0.038-0.061 0.061-0.107 0.061s-0.084-0.023-0.107-0.061c-0.023-0.038-0.038-0.092-0.038-0.153zM9.79 20.848c0 0.053 0.015 0.099 0.038 0.13s0.054 0.053 0.084 0.053 0.061-0.015 0.084-0.053c0.023-0.030 0.038-0.076 0.038-0.13s-0.015-0.099-0.038-0.13c-0.023-0.030-0.054-0.053-0.084-0.053s-0.061 0.015-0.084 0.053c-0.023 0.031-0.038 0.084-0.038 0.13z"></path>
<path fill="#a6a6a6" style="fill: var(--color10, #a6a6a6)" d="M10.196 20.848c0-0.061 0.015-0.107 0.038-0.153 0.023-0.038 0.061-0.061 0.107-0.061s0.084 0.023 0.107 0.061c0.023 0.038 0.038 0.092 0.038 0.153s-0.015 0.107-0.038 0.153c-0.023 0.038-0.061 0.061-0.107 0.061s-0.084-0.023-0.107-0.061c-0.031-0.038-0.038-0.092-0.038-0.153zM10.219 20.848c0 0.053 0.015 0.099 0.038 0.13s0.054 0.053 0.084 0.053 0.061-0.015 0.084-0.053c0.023-0.030 0.038-0.076 0.038-0.13s-0.015-0.099-0.038-0.13c-0.023-0.030-0.054-0.053-0.084-0.053s-0.061 0.015-0.084 0.053c-0.023 0.031-0.038 0.084-0.038 0.13z"></path>
<path fill="#ffd8d0" style="fill: var(--color7, #ffd8d0)" d="M14.316 16.82h-1.32c-0.566 0-1.024 0.459-1.024 1.024v1.308c0 0.566 0.458 1.024 1.024 1.024h1.32c0.566 0 1.024-0.459 1.024-1.024v-1.308c0-0.566-0.459-1.024-1.024-1.024z"></path>
<path fill="#fff" style="fill: var(--color3, #fff)" d="M14.628 19.559h-1.937c-0.191 0-0.352-0.153-0.352-0.351v-1.167c0-0.191 0.153-0.351 0.352-0.351h1.937c0.191 0 0.352 0.153 0.352 0.351v1.167c0 0.191-0.161 0.351-0.352 0.351z"></path>
<path fill="#a6a6a6" style="fill: var(--color10, #a6a6a6)" d="M12.998 20.596c0.008 0 0.015 0.008 0.015 0.015v0.023c0.046 0 0.077 0.015 0.107 0.046 0.008 0.008 0.008 0.008 0.008 0.015s-0.008 0.015-0.015 0.015c0 0-0.008 0-0.008-0.008-0.031-0.023-0.061-0.038-0.092-0.038v0.168c0.092 0.023 0.13 0.053 0.13 0.114s-0.053 0.107-0.13 0.114v0.046c0 0.008-0.008 0.015-0.015 0.015s-0.015-0.008-0.015-0.015v-0.046c-0.053-0.008-0.099-0.023-0.138-0.061-0.008 0-0.008-0.008-0.008-0.015s0.008-0.015 0.015-0.015c0.008 0 0.008 0 0.008 0.008 0.031 0.031 0.069 0.053 0.123 0.053v-0.175c-0.092-0.023-0.13-0.053-0.13-0.114s0.053-0.107 0.13-0.107v-0.023c0-0.008 0.008-0.015 0.015-0.015zM12.982 20.832v-0.168c-0.061 0-0.099 0.038-0.099 0.084 0 0.038 0.023 0.061 0.099 0.084zM13.013 20.871v0.168c0.061 0 0.099-0.038 0.099-0.084s-0.023-0.069-0.099-0.084z"></path>
<path fill="#a6a6a6" style="fill: var(--color10, #a6a6a6)" d="M13.465 20.977h-0.237c-0.008-0.008-0.008-0.015 0-0.023l0.245-0.305c0.008-0.008 0.015-0.008 0.023 0 0 0 0 0.008 0.008 0.008v0.29h0.031c0.008 0 0.015 0.008 0.015 0.015s-0.008 0.015-0.015 0.015h-0.031v0.076c0 0.008-0.008 0.015-0.015 0.015s-0.015-0.008-0.015-0.015v-0.076h-0.008zM13.465 20.947v-0.252l-0.199 0.252h0.199z"></path>
<path fill="#a6a6a6" style="fill: var(--color10, #a6a6a6)" d="M13.779 21.023c-0.008-0.008-0.008-0.015 0-0.023s0.015-0.008 0.023 0c0.023 0.023 0.054 0.031 0.084 0.031s0.061-0.008 0.084-0.031c0.023-0.023 0.031-0.053 0.031-0.084s-0.008-0.061-0.031-0.084c-0.023-0.023-0.054-0.030-0.084-0.030s-0.061 0.008-0.084 0.030c-0.008 0.008-0.015 0.008-0.023 0 0 0 0 0 0-0.008 0 0 0 0 0-0.008l0.023-0.175c0-0.008 0-0.008 0.008-0.008h0.207c0.008 0 0.015 0.008 0.015 0.015s-0.008 0.015-0.015 0.015h-0.184l-0.015 0.13c0.023-0.015 0.046-0.023 0.077-0.023 0.038 0 0.077 0.015 0.099 0.046 0.031 0.030 0.046 0.061 0.046 0.099s-0.015 0.076-0.046 0.099c-0.031 0.031-0.069 0.046-0.099 0.046-0.054 0-0.092-0.008-0.115-0.038z"></path>
<path fill="#a6a6a6" style="fill: var(--color10, #a6a6a6)" d="M14.146 20.848c0-0.061 0.015-0.107 0.038-0.153 0.023-0.038 0.061-0.061 0.107-0.061s0.084 0.023 0.107 0.061c0.023 0.038 0.038 0.092 0.038 0.153s-0.015 0.107-0.038 0.153c-0.023 0.038-0.061 0.061-0.107 0.061s-0.084-0.023-0.107-0.061c-0.023-0.038-0.038-0.092-0.038-0.153zM14.177 20.848c0 0.053 0.015 0.099 0.038 0.13s0.054 0.053 0.084 0.053c0.031 0 0.061-0.015 0.084-0.053 0.023-0.030 0.038-0.076 0.038-0.13s-0.015-0.099-0.038-0.13c-0.023-0.030-0.053-0.053-0.084-0.053s-0.061 0.015-0.084 0.053c-0.023 0.031-0.038 0.084-0.038 0.13z"></path>
<path fill="#ffd8d0" style="fill: var(--color7, #ffd8d0)" d="M18.289 16.82h-1.32c-0.566 0-1.024 0.459-1.024 1.024v1.308c0 0.566 0.459 1.024 1.024 1.024h1.32c0.566 0 1.024-0.459 1.024-1.024v-1.308c0-0.566-0.458-1.024-1.024-1.024z"></path>
<path fill="#fff" style="fill: var(--color3, #fff)" d="M18.425 18.941c0 0.313 0 0.892 0 0.892h-1.6c0 0 0-0.58 0-0.892s0.069-1.129 0.796-1.129c0.735 0 0.804 0.816 0.804 1.129z"></path>
<path fill="#fff" style="fill: var(--color3, #fff)" d="M18.471 19.955h-1.692c-0.046 0-0.084-0.038-0.084-0.084s0.038-0.084 0.084-0.084h1.692c0.046 0 0.084 0.038 0.084 0.084s-0.038 0.084-0.084 0.084z"></path>
<path fill="#455a64" style="fill: var(--color8, #455a64)" d="M17.392 17.095c-0.061 0.046-0.084 0.137 0.008 0.191 0.077 0.046 0.482-0.053 0.528-0.053 0.046 0.008 0.145 0.053 0.161 0.053s0.061-0.023 0.053-0.046c0-0.023-0.138-0.122-0.245-0.145s-0.421-0.061-0.505 0z"></path>
<path fill="#a6a6a6" style="fill: var(--color10, #a6a6a6)" d="M16.971 20.596c0.008 0 0.015 0.008 0.015 0.015v0.023c0.046 0 0.077 0.015 0.107 0.046 0.008 0.008 0.008 0.008 0.008 0.015s-0.008 0.015-0.015 0.015c0 0-0.008 0-0.008-0.008-0.031-0.023-0.061-0.038-0.092-0.038v0.168c0.092 0.023 0.13 0.053 0.13 0.114s-0.054 0.107-0.13 0.114v0.046c0 0.008-0.008 0.015-0.015 0.015s-0.015-0.008-0.015-0.015v-0.046c-0.054-0.008-0.099-0.023-0.138-0.061-0.008 0-0.008-0.008-0.008-0.015s0.008-0.015 0.015-0.015c0.008 0 0.008 0 0.008 0.008 0.031 0.031 0.069 0.053 0.122 0.053v-0.175c-0.092-0.023-0.13-0.053-0.13-0.114s0.054-0.107 0.13-0.107v-0.023c0-0.008 0.008-0.015 0.015-0.015zM16.955 20.832v-0.168c-0.061 0-0.099 0.038-0.099 0.084 0.008 0.038 0.023 0.061 0.099 0.084zM16.986 20.871v0.168c0.061 0 0.1-0.038 0.1-0.084s-0.023-0.069-0.1-0.084z"></path>
<path fill="#a6a6a6" style="fill: var(--color10, #a6a6a6)" d="M17.453 20.665l-0.107 0.114c0.031 0.008 0.054 0.015 0.077 0.038 0.031 0.030 0.046 0.069 0.046 0.099 0 0.038-0.015 0.076-0.046 0.099-0.031 0.030-0.069 0.046-0.099 0.046-0.038 0-0.077-0.015-0.1-0.046-0.008-0.008-0.008-0.015 0-0.023s0.015-0.008 0.023 0c0.023 0.023 0.054 0.030 0.084 0.030s0.061-0.008 0.084-0.030c0.023-0.023 0.031-0.053 0.031-0.084s-0.008-0.061-0.031-0.084c-0.023-0.023-0.053-0.031-0.084-0.031-0.008 0-0.008 0-0.015-0.008s-0.008-0.015 0-0.023l0.107-0.107h-0.161c-0.008 0-0.015-0.008-0.015-0.015s0.008-0.015 0.015-0.015h0.199c0.008 0 0.015 0.008 0.015 0.015-0.015 0.015-0.015 0.015-0.023 0.023 0 0 0.008 0 0 0z"></path>
<path fill="#a6a6a6" style="fill: var(--color10, #a6a6a6)" d="M17.721 21.023c-0.008-0.008-0.008-0.015 0-0.023s0.015-0.008 0.023 0c0.023 0.023 0.053 0.031 0.084 0.031s0.061-0.008 0.084-0.031c0.023-0.023 0.031-0.053 0.031-0.084s-0.008-0.061-0.031-0.084c-0.023-0.023-0.053-0.030-0.084-0.030s-0.061 0.008-0.084 0.030c-0.008 0.008-0.015 0.008-0.023 0 0 0 0 0 0-0.008 0 0 0 0 0-0.008l0.023-0.175c0-0.008 0-0.008 0.008-0.008h0.207c0.008 0 0.015 0.008 0.015 0.015s-0.008 0.015-0.015 0.015h-0.184l-0.015 0.13c0.023-0.015 0.046-0.023 0.077-0.023 0.038 0 0.077 0.015 0.1 0.046 0.031 0.030 0.046 0.061 0.046 0.099s-0.015 0.076-0.046 0.099c-0.031 0.031-0.069 0.046-0.1 0.046-0.053 0-0.084-0.008-0.115-0.038z"></path>
<path fill="#a6a6a6" style="fill: var(--color10, #a6a6a6)" d="M18.088 20.848c0-0.061 0.015-0.107 0.038-0.153 0.023-0.038 0.061-0.061 0.107-0.061s0.084 0.023 0.107 0.061c0.023 0.038 0.038 0.092 0.038 0.153s-0.015 0.107-0.038 0.153c-0.023 0.038-0.061 0.061-0.107 0.061s-0.084-0.023-0.107-0.061c-0.023-0.038-0.038-0.092-0.038-0.153zM18.119 20.848c0 0.053 0.015 0.099 0.038 0.13s0.054 0.053 0.084 0.053 0.061-0.015 0.084-0.053c0.023-0.030 0.038-0.076 0.038-0.13s-0.015-0.099-0.038-0.13c-0.023-0.030-0.054-0.053-0.084-0.053s-0.061 0.015-0.084 0.053c-0.023 0.031-0.038 0.084-0.038 0.13z"></path>
<path fill="#263238" style="fill: var(--color6, #263238)" d="M16.35 24.097h-5.365c-0.546 0-0.988 0.442-0.988 0.988s0.442 0.988 0.988 0.988h5.365c0.546 0 0.988-0.442 0.988-0.988s-0.442-0.988-0.988-0.988z"></path>
<path fill="#fff" style="fill: var(--color3, #fff)" d="M11.13 25.219h-0.214l-0.046 0.114c-0.008 0.023-0.023 0.031-0.046 0.031-0.008 0-0.008 0-0.015 0-0.023-0.008-0.038-0.038-0.031-0.061l0.191-0.511c0.008-0.023 0.031-0.030 0.046-0.030 0.023 0 0.038 0.008 0.046 0.030l0.191 0.511c0.008 0.023 0 0.053-0.031 0.061-0.008 0-0.008 0-0.015 0-0.023 0-0.038-0.008-0.046-0.031l-0.031-0.114zM11.092 25.127l-0.069-0.183-0.069 0.183h0.138z"></path>
<path fill="#fff" style="fill: var(--color3, #fff)" d="M11.383 25.318v-0.511c0-0.030 0.023-0.046 0.046-0.046h0.1c0.168 0 0.306 0.137 0.306 0.305s-0.138 0.305-0.306 0.305h-0.1c-0.031-0.008-0.046-0.030-0.046-0.053zM11.474 25.264h0.054c0.115 0 0.207-0.092 0.207-0.206s-0.092-0.206-0.207-0.206h-0.054v0.412z"></path>
<path fill="#fff" style="fill: var(--color3, #fff)" d="M11.98 25.318v-0.511c0-0.030 0.023-0.046 0.046-0.046h0.1c0.168 0 0.306 0.137 0.306 0.305s-0.138 0.305-0.306 0.305h-0.1c-0.023-0.008-0.046-0.030-0.046-0.053zM12.079 25.264h0.054c0.115 0 0.207-0.092 0.207-0.206s-0.092-0.206-0.207-0.206h-0.054v0.412z"></path>
<path fill="#fff" style="fill: var(--color3, #fff)" d="M13.243 24.852h-0.138v0.465c0 0.030-0.023 0.046-0.046 0.046s-0.046-0.023-0.046-0.046v-0.465h-0.138c-0.031 0-0.046-0.023-0.046-0.046 0-0.030 0.023-0.046 0.046-0.046h0.375c0.023 0 0.046 0.023 0.046 0.046-0.008 0.023-0.031 0.046-0.053 0.046z"></path>
<path fill="#fff" style="fill: var(--color3, #fff)" d="M13.87 24.83c0.054 0.061 0.084 0.137 0.084 0.221s-0.031 0.16-0.084 0.221c-0.053 0.053-0.13 0.092-0.207 0.092-0.084 0-0.161-0.038-0.214-0.092s-0.084-0.137-0.084-0.221c0-0.084 0.031-0.16 0.084-0.221s0.13-0.092 0.214-0.092c0.077 0 0.153 0.038 0.207 0.092zM13.855 25.051c0-0.061-0.023-0.114-0.061-0.153s-0.084-0.061-0.138-0.061c-0.054 0-0.107 0.023-0.138 0.061-0.038 0.038-0.061 0.092-0.061 0.153s0.023 0.114 0.061 0.153c0.038 0.038 0.084 0.061 0.138 0.061s0.099-0.023 0.138-0.061c0.038-0.038 0.061-0.092 0.061-0.153z"></path>
<path fill="#fff" style="fill: var(--color3, #fff)" d="M14.36 25.051c0-0.175 0.145-0.313 0.322-0.313 0.077 0 0.145 0.023 0.199 0.069 0.023 0.015 0.023 0.046 0.008 0.069s-0.046 0.023-0.069 0.008c-0.038-0.030-0.084-0.046-0.138-0.046-0.061 0-0.115 0.023-0.153 0.061s-0.061 0.092-0.061 0.153c0 0.061 0.023 0.114 0.061 0.153s0.099 0.061 0.153 0.061c0.053 0 0.099-0.015 0.138-0.046 0.023-0.015 0.054-0.008 0.069 0.008 0.015 0.023 0.015 0.053-0.008 0.069-0.054 0.046-0.123 0.069-0.199 0.069-0.176 0-0.322-0.137-0.322-0.313z"></path>
<path fill="#fff" style="fill: var(--color3, #fff)" d="M15.355 25.219h-0.214l-0.046 0.114c-0.008 0.023-0.023 0.031-0.046 0.031-0.008 0-0.008 0-0.015 0-0.023-0.008-0.038-0.038-0.031-0.061l0.191-0.511c0.008-0.023 0.031-0.030 0.046-0.030 0.023 0 0.038 0.008 0.046 0.030l0.191 0.511c0.008 0.023 0 0.053-0.031 0.061-0.008 0-0.008 0-0.015 0-0.023 0-0.038-0.008-0.046-0.031l-0.031-0.114zM15.325 25.127l-0.069-0.183-0.069 0.183h0.138z"></path>
<path fill="#fff" style="fill: var(--color3, #fff)" d="M16.014 25.287c0.008 0.023-0.008 0.053-0.031 0.061 0 0-0.008 0-0.023 0-0.008 0-0.023 0-0.031-0.008s-0.023-0.015-0.031-0.031c-0.015-0.023-0.015-0.053-0.015-0.107 0-0.015-0.008-0.030-0.008-0.038-0.008-0.008-0.015-0.015-0.023-0.023-0.015-0.015-0.038-0.023-0.046-0.023h-0.115v0.191c0 0.023-0.023 0.046-0.046 0.046-0.031 0-0.046-0.023-0.046-0.046v-0.511c0-0.031 0.023-0.046 0.046-0.046h0.153c0.107 0 0.184 0.084 0.184 0.183 0 0.061-0.023 0.107-0.069 0.145 0.008 0.008 0.023 0.023 0.031 0.030 0.015 0.023 0.031 0.061 0.031 0.092 0 0.023 0 0.046 0 0.053 0.023 0.008 0.031 0.023 0.038 0.031zM15.891 24.944c0-0.053-0.038-0.092-0.092-0.092h-0.107v0.175h0.107c0.053 0 0.092-0.038 0.092-0.084z"></path>
<path fill="#fff" style="fill: var(--color3, #fff)" d="M16.511 24.852h-0.138v0.465c0 0.030-0.023 0.046-0.046 0.046s-0.046-0.023-0.046-0.046v-0.465h-0.138c-0.031 0-0.046-0.023-0.046-0.046 0-0.030 0.023-0.046 0.046-0.046h0.375c0.023 0 0.046 0.023 0.046 0.046-0.008 0.023-0.031 0.046-0.054 0.046z"></path>
<path fill="#f7a9a0" style="fill: var(--color11, #f7a9a0)" d="M22.122 30.757c0.168 0.053 4.914-0.008 5.090-0.122 0.069-0.046 0.1-0.732 0.115-1.571 0-0.008 0-0.015 0-0.023 0-0.175 0.008-0.351 0.008-0.526 0-0.023 0-0.046 0-0.076 0.008-1.205-0.015-2.456-0.015-2.456l-3.177 0.030 0.092 2.433v0.099l0.023 0.503v0.053c0 0-1.807 0.831-1.99 0.984-0.176 0.137-0.314 0.618-0.145 0.671z"></path>
<path fill="#ebebeb" style="fill: var(--color12, #ebebeb)" d="M22.122 30.757c0.168 0.053 4.914-0.008 5.090-0.122 0.069-0.046 0.1-0.732 0.115-1.571 0-0.008 0-0.015 0-0.023 0-0.175 0.008-0.351 0.008-0.526 0-0.023 0-0.046 0-0.076l-3.092 0.008v0.099l0.023 0.503v0.053c0 0-1.806 0.831-1.99 0.984-0.184 0.137-0.322 0.618-0.153 0.671z"></path>
<path fill="#ffc727" style="fill: var(--color2, #ffc727)" d="M22.122 30.757c0.099 0.030 1.944 0.023 3.383-0.015 0.895-0.023 1.646-0.061 1.715-0.107s0.1-0.717 0.115-1.533c0-0.015 0-0.023 0-0.038 0-0.008 0-0.015 0-0.030l-3.062 0.008v0.053c0 0-1.806 0.831-1.99 0.984-0.191 0.145-0.329 0.626-0.161 0.679z"></path>
<path fill="#263238" style="fill: var(--color6, #263238)" d="M23.653 28.819c0.222 0.168 0.513 0.236 0.781 0.328 0.031 0.008 0.046-0.015 0.046-0.038 0.008 0 0.008-0.008 0.008-0.008-0.092-0.259-0.276-0.534-0.498-0.709-0.13-0.107-0.367-0.183-0.482-0.008-0.115 0.153 0.015 0.336 0.145 0.435zM23.569 28.567c-0.061-0.343 0.314-0.168 0.406-0.084 0.061 0.053 0.115 0.114 0.168 0.175 0.107 0.13 0.199 0.275 0.299 0.412-0.122-0.053-0.253-0.099-0.383-0.145-0.153-0.053-0.459-0.168-0.49-0.359z"></path>
<path fill="#263238" style="fill: var(--color6, #263238)" d="M25.529 28.605c-0.077-0.198-0.322-0.175-0.475-0.099-0.253 0.122-0.498 0.343-0.643 0.58 0 0.008 0 0.008 0.008 0.015-0.008 0.023 0.008 0.053 0.038 0.053 0.276-0.030 0.574-0.030 0.834-0.145 0.145-0.069 0.314-0.221 0.237-0.404zM24.863 29.017c-0.138 0.015-0.268 0.031-0.406 0.053 0.122-0.114 0.245-0.229 0.383-0.328 0.069-0.046 0.138-0.099 0.207-0.137 0.115-0.061 0.513-0.145 0.375 0.175-0.077 0.175-0.398 0.214-0.559 0.236z"></path>
<path fill="#263238" style="fill: var(--color6, #263238)" d="M22.566 29.94c0.191-0.008 0.375 0.076 0.482 0.191 0.099 0.107 0.191 0.259 0.184 0.427 0 0.008-0.008 0.008-0.008 0-0.053-0.313-0.337-0.58-0.658-0.603-0.008-0.008-0.008-0.015 0-0.015z"></path>
<path fill="#455a64" style="fill: var(--color8, #455a64)" d="M28.292 12.35c0 0-0.712 7.994-0.827 8.605-0.031 0.137-0.046 0.892-0.054 1.869-0.023 2.121-0.008 5.942-0.008 5.942h-3.345c0 0 0.099-6.621 0.245-7.842s1.095-8.574 1.095-8.574h2.894z"></path>
<path fill="#263238" style="fill: var(--color6, #263238)" d="M24.204 28.178c0.521-0.008 0.375-0.015 0.896-0.023 0.253 0 1.937-0.015 2.174 0.023 0.008 0 0.008 0.008 0 0.008-0.237 0.038-1.921 0.023-2.174 0.023-0.521-0.008-0.375-0.008-0.896-0.023-0.008 0.008-0.008-0.008 0-0.008z"></path>
<path fill="#263238" style="fill: var(--color6, #263238)" d="M26.769 24.395c0-0.48 0.008-0.969 0.008-1.449 0-0.465 0-0.938 0.023-1.404 0.046-0.946 0.237-1.877 0.375-2.815s0.253-1.876 0.352-2.822c0.115-1.060 0.222-2.113 0.329-3.173 0-0.008 0.015-0.008 0.008 0-0.161 1.884-0.337 3.776-0.597 5.652-0.069 0.465-0.138 0.931-0.214 1.396-0.077 0.473-0.153 0.938-0.192 1.419-0.038 0.465-0.046 0.931-0.046 1.404-0.008 0.481-0.008 0.969-0.015 1.449-0.008 1.076-0.023 2.723-0.031 3.799 0 0.023-0.031 0.023-0.031 0 0.015-0.961 0.023-2.494 0.031-3.456z"></path>
<path fill="#f7a9a0" style="fill: var(--color11, #f7a9a0)" d="M26.003 31.039c0.168 0.038 4.899-0.351 5.075-0.48 0.069-0.046 0.046-0.74 0-1.571 0-0.008 0-0.015 0-0.023-0.008-0.175-0.023-0.351-0.031-0.526 0-0.023 0-0.046-0.008-0.076-0.077-1.205-0.184-2.449-0.184-2.449l-3.169 0.259 0.268 2.418 0.008 0.099 0.054 0.503 0.008 0.053c0 0-1.745 0.961-1.914 1.121-0.168 0.145-0.276 0.625-0.107 0.671z"></path>
<path fill="#ebebeb" style="fill: var(--color12, #ebebeb)" d="M26.003 31.039c0.168 0.038 4.899-0.351 5.075-0.48 0.069-0.046 0.046-0.74 0-1.571 0-0.008 0-0.015 0-0.023-0.008-0.175-0.023-0.351-0.031-0.526 0-0.023 0-0.046-0.008-0.076l-3.085 0.229 0.008 0.099 0.054 0.503 0.008 0.053c0 0-1.745 0.961-1.914 1.121-0.168 0.145-0.276 0.625-0.107 0.671z"></path>
<path fill="#ffc727" style="fill: var(--color2, #ffc727)" d="M26.003 31.039c0.168 0.038 4.899-0.351 5.075-0.481 0.069-0.046 0.046-0.74 0-1.571 0-0.008 0-0.015 0-0.023l-3.054 0.221 0.008 0.053c0 0-1.745 0.961-1.914 1.121-0.176 0.153-0.283 0.633-0.115 0.679z"></path>
<path fill="#263238" style="fill: var(--color6, #263238)" d="M27.396 29.002c0.237 0.153 0.528 0.198 0.796 0.275 0.031 0.008 0.046-0.023 0.046-0.046 0.008 0 0.008-0.008 0.008-0.015-0.107-0.252-0.314-0.519-0.544-0.679-0.138-0.099-0.375-0.153-0.482 0.023s0.038 0.351 0.176 0.442zM27.297 28.75c-0.084-0.336 0.299-0.191 0.398-0.114 0.061 0.046 0.122 0.107 0.184 0.168 0.122 0.122 0.222 0.259 0.329 0.389-0.13-0.046-0.26-0.076-0.39-0.114-0.161-0.046-0.475-0.137-0.521-0.328z"></path>
<path fill="#263238" style="fill: var(--color6, #263238)" d="M29.256 28.651c-0.092-0.191-0.329-0.153-0.482-0.069-0.237 0.137-0.475 0.381-0.605 0.626 0 0.008 0 0.008 0.008 0.015 0 0.023 0.015 0.053 0.038 0.046 0.275-0.053 0.574-0.069 0.819-0.198 0.146-0.076 0.306-0.237 0.222-0.42zM28.613 29.109c-0.13 0.031-0.268 0.046-0.398 0.084 0.115-0.122 0.23-0.244 0.36-0.359 0.061-0.053 0.13-0.107 0.199-0.145 0.107-0.069 0.505-0.183 0.39 0.145-0.069 0.183-0.39 0.244-0.551 0.275z"></path>
<path fill="#263238" style="fill: var(--color6, #263238)" d="M26.317 30.215c0.192-0.031 0.383 0.046 0.498 0.145 0.107 0.099 0.207 0.244 0.222 0.404 0 0.008-0.008 0.008-0.008 0-0.077-0.305-0.39-0.549-0.704-0.542-0.008 0.008-0.008-0.008-0.008-0.008z"></path>
<path fill="#455a64" style="fill: var(--color8, #455a64)" d="M27.886 28.941l3.345-0.145c0 0-0.911-7.308-0.926-7.758-0.046-1.167-0.819-8.696-0.819-8.696h-4.080c0 0 0.26 1.739 0.697 2.838 0 0 0.337 0.107 0.857 0.389 0 0 0.383 4.981 0.398 5.599 0.015 1.236 0.528 7.773 0.528 7.773z"></path>
<path fill="#263238" style="fill: var(--color6, #263238)" d="M27.978 28.331c0.52-0.030 0.367-0.030 0.896-0.061 0.253-0.015 1.929-0.099 2.174-0.069 0.008 0 0.008 0.008 0 0.008-0.237 0.046-1.914 0.107-2.174 0.114-0.521 0.015-0.375 0.008-0.896 0.015-0.015 0.008-0.015-0.008 0-0.008z"></path>
<path fill="#263238" style="fill: var(--color6, #263238)" d="M29.18 12.792c0.153 1.899 0.306 3.791 0.482 5.683 0.176 1.899 0.383 3.799 0.628 5.691 0.138 1.060 0.291 2.548 0.459 3.601 0 0.008-0.008 0.008-0.008 0-0.337-1.869-0.582-4.195-0.796-6.087s-0.383-3.784-0.536-5.675c-0.084-1.068-0.168-2.143-0.245-3.219-0.008-0.008 0.015-0.008 0.015 0.008z"></path>
<path fill="#263238" style="fill: var(--color6, #263238)" d="M25.842 12.808c0-0.015 0.023-0.015 0.023 0 0 0.397 0.023 0.748 0.054 1.121 0.015 0.175 0.153 1.129 0.459 1.060 0.053-0.015 0.077-0.061 0.084-0.137 0.008-0.092-0.023-0.206-0.038-0.29-0.031-0.198-0.061-0.404-0.077-0.603-0.031-0.374-0.031-0.755 0.015-1.129 0-0.015 0.023-0.008 0.023 0 0 0.519 0.015 1.045 0.092 1.564 0.038 0.252 0.161 0.626-0.099 0.664-0.268 0.038-0.436-0.587-0.467-0.763-0.107-0.488-0.107-1.007-0.069-1.488z"></path>
<path fill="#263238" style="fill: var(--color6, #263238)" d="M26.363 15.012c0.031 0.061 0.046 0.13 0.069 0.198 0.015 0.053 0.031 0.107 0.031 0.16 0 0.008-0.015 0.015-0.023 0.008-0.038-0.046-0.053-0.107-0.069-0.16-0.023-0.061-0.046-0.122-0.069-0.183-0.015-0.038 0.046-0.061 0.061-0.023z"></path>
<path fill="#c7c7c7" style="fill: var(--color13, #c7c7c7)" d="M12.829 29.124l-0.015-0.153 8.076-0.412-0.597-3.585 0.153-0.023 0.628 3.753-8.244 0.42z"></path>
<path fill="#c7c7c7" style="fill: var(--color13, #c7c7c7)" d="M14.268 30.055l-0.008-0.153 8.076-0.412-0.788-4.707 0.153-0.023 0.811 4.867-8.244 0.427z"></path>
<path fill="#a6a6a6" style="fill: var(--color10, #a6a6a6)" d="M12.538 24.494l-1.179-5.355 8.037-1.297 0.084 5.599-0.069 0.008-6.874 1.045zM11.543 19.261l1.118 5.065 6.667-1.015-0.077-5.286-7.708 1.236z"></path>
<path fill="#dbdbdb" style="fill: var(--color9, #dbdbdb)" d="M22.75 24.746l-3.422-1.32v-5.591l5.228 1.51-1.806 5.401zM19.474 23.319l3.177 1.22 1.699-5.096-4.884-1.411v5.286h0.008z"></path>
<path fill="#e6a36e" style="fill: var(--color14, #e6a36e)" d="M19.489 19.909c0.015 0.61 0.161 3.532-0.406 3.585-0.199 0.023-0.383-0.435-0.52-1.114-0.015-0.069-0.031-0.137-0.038-0.206-0.046-0.252-0.084-0.534-0.122-0.824-0.008-0.069-0.015-0.137-0.023-0.206-0.031-0.267-0.053-0.549-0.069-0.831 0-0.069-0.008-0.137-0.008-0.206 0-0.061-0.008-0.114-0.008-0.175-0.008-0.191-0.008-0.381-0.008-0.564 0-0.069 0-0.137 0-0.206 0.008-0.381 0.023-0.74 0.046-1.076 0.008-0.069 0.008-0.13 0.015-0.191 0.084-0.854 0.245-1.472 0.467-1.533 0.475-0.122 0.628 2.029 0.674 3.547z"></path>
<path fill="#cc8a58" style="fill: var(--color15, #cc8a58)" d="M19.114 22.022c-0.008 0.008-0.015 0.008-0.023 0.015l-0.008 0.008c-0.199 0.069-0.375 0.183-0.52 0.351-0.015-0.069-0.031-0.137-0.038-0.206 0.176-0.145 0.39-0.229 0.574-0.198h0.015c0.008 0 0.015 0.015 0 0.030z"></path>
<path fill="#cc8a58" style="fill: var(--color15, #cc8a58)" d="M19.045 21.145c-0.008 0-0.015 0.008-0.023 0.008l-0.008 0.008c-0.207 0.008-0.413 0.069-0.589 0.191-0.008 0.008-0.015 0.008-0.023 0.015-0.008-0.069-0.015-0.137-0.023-0.206 0.214-0.114 0.467-0.137 0.658-0.053 0 0 0 0 0.008 0.008h0.008c0 0 0.008 0.023-0.008 0.031z"></path>
<path fill="#cc8a58" style="fill: var(--color15, #cc8a58)" d="M18.999 20.253c-0.008 0-0.015 0-0.023 0 0 0-0.008 0-0.015 0-0.207-0.038-0.413-0.030-0.612 0.053-0.015 0.008-0.031 0.015-0.046 0.023 0-0.069-0.008-0.137-0.008-0.206 0.237-0.076 0.513-0.046 0.697 0.084 0 0 0.008 0 0.008 0.008 0 0 0.008 0 0.008 0.008 0.008 0.008 0.015 0.030-0.008 0.030z"></path>
<path fill="#cc8a58" style="fill: var(--color15, #cc8a58)" d="M18.968 19.314c-0.008 0-0.015 0-0.023 0 0 0-0.008 0-0.015 0-0.207-0.038-0.413-0.030-0.612 0.053-0.015 0.008-0.023 0.008-0.031 0.015 0-0.069 0-0.137 0-0.206 0.23-0.069 0.498-0.038 0.674 0.092 0 0 0.008 0 0.008 0.008 0 0 0.008 0 0.008 0.008 0.008 0.008 0.008 0.030-0.008 0.030z"></path>
<path fill="#cc8a58" style="fill: var(--color15, #cc8a58)" d="M18.968 18.208c-0.008 0-0.015 0-0.023-0.008 0 0-0.008 0-0.015 0-0.191-0.084-0.398-0.122-0.597-0.099 0.008-0.069 0.008-0.13 0.015-0.191 0.23 0 0.475 0.092 0.62 0.252v0.008l0.008 0.008c0.008 0.015 0.008 0.038-0.008 0.031z"></path>
<path fill="#edaa76" style="fill: var(--color16, #edaa76)" d="M20.385 20.276c-0.084 0.603-0.436 3.486-1.003 3.41-0.199-0.023-0.306-0.511-0.329-1.205 0-0.069-0.008-0.137-0.008-0.206 0-0.259 0-0.542 0.015-0.831 0-0.069 0.008-0.137 0.015-0.206 0.015-0.267 0.046-0.549 0.077-0.824 0.008-0.069 0.015-0.137 0.023-0.198 0.008-0.053 0.015-0.114 0.023-0.168 0.023-0.183 0.054-0.374 0.084-0.557 0.015-0.069 0.023-0.137 0.038-0.198 0.069-0.366 0.145-0.717 0.23-1.037 0.015-0.061 0.031-0.122 0.046-0.183 0.222-0.816 0.49-1.381 0.72-1.388 0.498-0.031 0.283 2.105 0.069 3.593z"></path>
<path fill="#cc8a58" style="fill: var(--color15, #cc8a58)" d="M19.673 22.251c-0.008 0.008-0.015 0.008-0.023 0.008l-0.008 0.008c-0.207 0.023-0.398 0.092-0.574 0.221 0-0.069-0.008-0.137-0.008-0.206 0.199-0.099 0.421-0.13 0.605-0.061 0 0 0.008 0 0.008 0.008h0.008c0-0.008 0.008 0.015-0.008 0.023z"></path>
<path fill="#cc8a58" style="fill: var(--color15, #cc8a58)" d="M19.749 21.374c-0.008 0-0.015 0-0.023 0 0 0-0.008 0-0.015 0-0.207-0.038-0.413-0.031-0.612 0.046-0.008 0-0.015 0.008-0.023 0.008 0-0.069 0.008-0.137 0.015-0.206 0.23-0.061 0.482-0.023 0.658 0.099 0 0 0 0 0.008 0.008 0 0 0.008 0 0.008 0.008 0 0.015 0 0.038-0.015 0.038z"></path>
<path fill="#cc8a58" style="fill: var(--color15, #cc8a58)" d="M19.856 20.497c-0.008 0-0.015 0-0.023-0.008 0 0-0.008 0-0.015 0-0.199-0.084-0.406-0.122-0.612-0.092-0.015 0-0.031 0.008-0.046 0.008 0.008-0.069 0.015-0.137 0.023-0.198 0.245-0.015 0.513 0.076 0.674 0.252v0.008l0.008 0.008c0.008 0 0.008 0.023-0.008 0.023z"></path>
<path fill="#cc8a58" style="fill: var(--color15, #cc8a58)" d="M19.979 19.574c-0.008 0-0.015 0-0.023-0.008 0 0-0.008 0-0.015 0-0.199-0.084-0.406-0.122-0.612-0.092-0.015 0-0.023 0.008-0.038 0.008 0.015-0.069 0.023-0.137 0.038-0.198 0.237-0.015 0.498 0.084 0.651 0.252v0.008l0.008 0.008c0.008 0.008 0.008 0.023-0.008 0.023z"></path>
<path fill="#cc8a58" style="fill: var(--color15, #cc8a58)" d="M20.163 18.498c-0.008 0-0.015-0.008-0.023-0.015-0.008 0-0.008 0-0.015-0.008-0.176-0.13-0.367-0.214-0.574-0.237 0.015-0.061 0.031-0.122 0.046-0.183 0.23 0.053 0.452 0.198 0.566 0.389v0.008c0 0 0 0.008 0.008 0.008 0.015 0.023 0.015 0.038-0.008 0.038z"></path>
<path fill="#ffc727" style="fill: var(--color2, #ffc727)" d="M16.978 19.703c0 0 0.092 2.914 0.061 3.028s-0.207 1.48-0.191 1.518c0.015 0.038 1.393 0.824 1.439 0.778s0.13-2.014 0.13-2.258 0.015-2.41 0.015-2.41l-1.454-0.656z"></path>
<path fill="#ffc727" style="fill: var(--color2, #ffc727)" d="M18.425 20.367l-0.145 4.661c0 0 2.235-0.656 2.25-0.694 0.023-0.038 0.13-1.358 0.099-1.564s0.168-2.876 0.168-2.876l-2.373 0.473z"></path>
<path fill="#000" style="fill: var(--color17, #000)" opacity="0.1" d="M18.425 20.367l-0.145 4.661c0 0 2.235-0.656 2.25-0.694 0.023-0.038 0.13-1.358 0.099-1.564s0.168-2.876 0.168-2.876l-2.373 0.473z"></path>
<path fill="#dbdbdb" style="fill: var(--color9, #dbdbdb)" d="M15.325 25.661l-2.786-1.16-0.008-0.038-1.179-5.347 3.46 1.411 0.513 5.134zM12.669 24.387l2.473 1.030-0.475-4.791-3.108-1.266 1.11 5.027z"></path>
<path fill="#ebebeb" style="fill: var(--color12, #ebebeb)" d="M15.317 25.653l-0.666-5.141 9.898-1.175-1.806 5.408-0.046 0.008-7.379 0.9zM14.827 20.642l0.628 4.844 7.18-0.877 1.699-5.088-9.507 1.121z"></path>
<path fill="#f7a9a0" style="fill: var(--color11, #f7a9a0)" d="M26.416 8.269c-0.413 0.641-1.929 2.975-2.878 2.975-0.574 0-2.511-0.969-2.932-1.297-0.498-0.381 0.842-1.587 1.186-1.442 0.429 0.175 1.584 0.854 1.86 0.854 0.245 0 0.942-0.778 2.258-1.632 0.674-0.45 0.865-0.015 0.505 0.542z"></path>
<path fill="#f7a9a0" style="fill: var(--color11, #f7a9a0)" d="M20.653 9.978c-0.176-0.084-0.964-0.549-1.156-0.725s-0.697-0.732-0.582-0.893 0.283-0.008 0.283-0.008c0 0-0.176-0.267-0.038-0.42s0.383 0.092 0.383 0.092-0.161-0.29-0.015-0.427c0.145-0.137 0.352 0.145 0.352 0.145s-0.161-0.259 0.008-0.32c0.207-0.076 0.452 0.427 0.674 0.61 0.054 0.038 1.095 0.755 1.095 0.755l-1.003 1.19z"></path>
<path fill="#f7a9a0" style="fill: var(--color11, #f7a9a0)" d="M22.038 8.757c0 0-0.145-0.496-0.26-0.702s-0.811-0.809-0.949-0.664c-0.184 0.183 0.153 0.61 0.344 0.801 0 0-0.421 0.427-0.245 0.786 0.168 0.366 1.11-0.221 1.11-0.221z"></path>
<path fill="#263238" style="fill: var(--color6, #263238)" d="M20.79 7.46c-0.046 0.29 0.222 0.519 0.398 0.717 0.015 0.015 0.008 0.030-0.008 0.038-0.161 0.191-0.337 0.503-0.268 0.763 0 0.008-0.008 0.008-0.008 0.008-0.107-0.267 0.038-0.587 0.23-0.786-0.184-0.206-0.444-0.45-0.344-0.74z"></path>
<path fill="#ffc727" style="fill: var(--color2, #ffc727)" d="M24.954 13.426c0.077 0.076 4.784 0.030 4.807 0 0.061-0.084-0.658-3.112-1.202-4.257-0.697-1.472-1.064-1.594-1.278-1.678-0.283-0.107-1.010-0.061-1.133-0.008-0.138 0.061-0.482 0.748-0.643 1.297-0.322 1.098-0.62 4.577-0.551 4.646z"></path>
<path fill="#f7a9a0" style="fill: var(--color11, #f7a9a0)" d="M27.986 8.856c-0.023 1.442-0.084 3.15-0.49 3.631-0.605 0.732-2.128 1.48-2.748 1.617-0.26 0.061-0.987-1.892-0.704-1.953 0.589-0.122 1.944-0.679 2.067-0.801 0.115-0.114 0.589-1.518 0.964-2.601 0.452-1.304 0.926-0.725 0.911 0.107z"></path>
<path fill="#f7a9a0" style="fill: var(--color11, #f7a9a0)" d="M24.365 12.075c0 0-0.781 0.198-1.286 0.351-0.283 0.084-0.75 0.275-0.926 0.435-0.268 0.236-1.232 1.388-0.957 1.625 0.253 0.214 0.949-0.877 0.949-0.877s-0.804 1.045-0.459 1.251c0.352 0.206 0.972-1.137 0.972-1.137s-0.804 1.091-0.413 1.243c0.299 0.114 0.934-1.068 0.934-1.068s-0.681 0.946-0.383 1.076c0.329 0.145 0.988-0.908 0.988-0.908 0.819 0.213 1.301-0.023 1.615-0.229 0.084-0.053-1.033-1.762-1.033-1.762z"></path>
<path fill="#263238" style="fill: var(--color6, #263238)" d="M22.398 13.235c-0.1 0.122-0.199 0.236-0.291 0.366s-0.168 0.259-0.245 0.397c-0.184 0.328-0.253 0.564-0.245 0.557 0.13-0.336 0.436-0.793 0.528-0.923 0.092-0.137 0.168-0.267 0.253-0.397 0-0.008 0.008 0 0 0z"></path>
<path fill="#263238" style="fill: var(--color6, #263238)" d="M26.662 9.528c0.077-0.191 0.191-0.465 0.253-0.656 0 0 0-0.008-0.008 0-0.046 0.099-0.092 0.206-0.138 0.313 0-0.008 0-0.015 0.008-0.015 0.008-0.061 0.023-0.114 0.023-0.175-0.015 0.061-0.031 0.114-0.046 0.175-0.008 0.038-0.015 0.076-0.023 0.114-0.023 0.053-0.084 0.191-0.1 0.244-0.038 0.092-0.245 0.603-0.237 0.603 0.015 0 0.176 0.023 0.207 0.023 0.008 0 0.008-0.015 0-0.015-0.031 0-0.161-0.023-0.176-0.023 0.038-0.099 0.077-0.191 0.122-0.29 0.038-0.099 0.077-0.198 0.115-0.297z"></path>
<path fill="#263238" style="fill: var(--color6, #263238)" d="M28.215 9.245c-0.015 0.053-0.023 0.099-0.031 0.153 0 0.015-0.008 0.038-0.008 0.053-0.008-0.13-0.015-0.252-0.031-0.381h-0.008c0.015 0.214 0.008 0.427 0 0.633 0 0.107-0.008 0.206-0.015 0.313 0 0.053-0.008 0.107-0.008 0.16 0 0.061-0.008 0.175-0.008 0.175-0.031-0.008-0.13-0.015-0.161-0.023-0.008 0-0.008 0.008 0 0.008 0.031 0.008 0.184 0.030 0.184 0.030 0-0.053 0.015-0.122 0.023-0.175s0.008-0.099 0.015-0.153c0.008-0.107 0.015-0.221 0.015-0.328 0-0.061 0-0.122 0-0.183 0.008-0.046 0.023-0.092 0.031-0.137 0.008-0.053 0.015-0.107 0.023-0.153-0.008 0-0.023 0-0.023 0.008z"></path>
<path fill="#f7a9a0" style="fill: var(--color11, #f7a9a0)" d="M26.286 8.238c0.26 0.076 0.743-0.298 0.942-0.618 0.015-0.023-0.008-0.259-0.015-0.549-0.008-0.175-0.008-0.374 0-0.557 0-0.038-1.148 0.206-1.148 0.206s0.092 0.381 0.069 0.694c0 0.023-0.008 0.053-0.015 0.076 0 0 0 0.008 0 0.015-0.031 0.137-0.084 0.656 0.168 0.732z"></path>
<path fill="#263238" style="fill: var(--color6, #263238)" d="M27.144 6.514c-0.069 0.298-0.306 1.022-0.911 0.999-0.046 0-0.084-0.008-0.115-0.015 0-0.008 0-0.008 0-0.015 0.008-0.023 0.008-0.046 0.015-0.076 0.023-0.313-0.069-0.694-0.069-0.694s0.827-0.168 1.079-0.198z"></path>
<path fill="#263238" style="fill: var(--color6, #263238)" d="M26.409 5.675c-0.031-0.008-0.061-0.023-0.099-0.038s-0.069-0.023-0.092-0.061c-0.015-0.015-0.008-0.053 0.015-0.069 0.038-0.030 0.092-0.023 0.138-0.008s0.084 0.046 0.107 0.092c0.031 0.053-0.023 0.099-0.069 0.084z"></path>
<path fill="#263238" style="fill: var(--color6, #263238)" d="M25.62 5.622c0.038 0 0.069-0.015 0.107-0.023s0.069-0.008 0.099-0.038c0.015-0.015 0.015-0.046 0-0.069-0.031-0.038-0.084-0.038-0.13-0.030-0.054 0.008-0.092 0.030-0.122 0.069-0.038 0.038 0 0.092 0.046 0.092z"></path>
<path fill="#263238" style="fill: var(--color6, #263238)" d="M26.317 6.606c-0.023 0.015-0.038 0.038-0.069 0.046-0.031 0-0.061-0.015-0.084-0.023 0 0-0.008 0 0 0.008 0.015 0.030 0.061 0.053 0.1 0.046 0.031-0.008 0.046-0.038 0.054-0.076 0 0 0.008 0 0 0z"></path>
<path fill="#263238" style="fill: var(--color6, #263238)" d="M26.248 6.37c-0.046 0.069-0.115 0.099-0.184 0.107-0.031 0.008-0.069 0-0.099 0-0.008 0-0.015 0-0.015 0-0.008 0-0.008 0-0.015 0s-0.015-0.008-0.015-0.015v-0.015c0-0.061 0.015-0.153 0.015-0.153-0.023 0.008-0.138 0.053-0.138 0.023 0.031-0.259 0.069-0.557 0.153-0.809 0-0.008 0.015-0.008 0.015 0-0.023 0.252-0.084 0.503-0.107 0.755 0.038-0.015 0.1-0.030 0.13-0.030 0.008 0-0.023 0.175-0.023 0.206 0.092 0.008 0.168-0.015 0.283-0.069 0-0.008-0.008-0.015 0 0z"></path>
<path fill="#263238" style="fill: var(--color6, #263238)" d="M25.996 6.446c0 0 0.054 0.076 0.122 0.107 0.023 0.008 0.053 0.015 0.084 0.008 0.061-0.015 0.069-0.069 0.061-0.122-0.008-0.038-0.023-0.076-0.023-0.076s-0.092 0.084-0.245 0.084z"></path>
<path fill="#263238" style="fill: var(--color6, #263238)" d="M25.62 5.157c0.39 0.267 0.919-0.137 0.919-0.137 0.122 0.305 0.429 0.267 0.429 0.267s0.077 0.656 0.253 0.656c0.268 0 0.344-0.9 0.26-1.076s-0.306-0.221-0.306-0.221-0.015-0.137-0.176-0.259c-0.184-0.137-0.804 0.046-0.804 0.046s-0.046-0.114-0.161-0.214c-0.077-0.061-0.176-0.053-0.237 0.023 0.031 0.046 0.054 0.099 0.061 0.16 0.031 0.191-0.13 0.191-0.122 0.015 0-0.076 0.023-0.137 0.061-0.183-0.077-0.114-0.207-0.153-0.283-0.092-0.13 0.122-0.214 0.793 0.107 1.015z"></path>
<path fill="#263238" style="fill: var(--color6, #263238)" d="M27.465 5.881c0.008 0 0.008 0.008 0 0-0.138 0.069-0.199 0.206-0.245 0.343 0.038-0.053 0.092-0.084 0.168-0.038v0.008c-0.061-0.008-0.099 0-0.138 0.053-0.023 0.030-0.038 0.076-0.061 0.114-0.008 0.015-0.031 0.008-0.023-0.008-0.015-0.183 0.107-0.442 0.299-0.473z"></path>
<path fill="#ffc727" style="fill: var(--color2, #ffc727)" d="M4.149 24.074c0.031-0.74 0.015-1.48-0.031-2.212-0.1-1.518-0.352-3.028-0.697-4.516-0.191-0.831-0.436-1.655-0.681-2.479-0.008-0.023-0.046-0.015-0.038 0.008 0.773 2.891 1.401 5.874 1.363 8.879-0.015 0.839-0.107 1.671-0.191 2.502 0 0.023 0.038 0.031 0.038 0.008 0.153-0.709 0.207-1.457 0.237-2.189z"></path>
<path fill="#ffc727" style="fill: var(--color2, #ffc727)" d="M2.702 14.875c0 0-1.164 2.952-0.903 3.646s0.804 0.839 0.804 0.839c0 0-0.712 1.015-0.214 1.968s1.607 0.908 1.684 1.991c-0.015 0 0.046-4.516-1.37-8.444z"></path>
<path fill="#263238" style="fill: var(--color6, #263238)" d="M3.935 21.458c0-0.008 0-0.008 0-0.015-0.161-2.006-0.521-4.005-1.133-5.935 0-0.008-0.008-0.008-0.008 0 0.23 0.862 0.436 1.732 0.612 2.601-0.153-0.153-0.352-0.244-0.559-0.313-0.008 0-0.008 0.008 0 0.008 0.214 0.092 0.421 0.198 0.574 0.381 0.031 0.168 0.069 0.343 0.099 0.511-0.26-0.29-0.62-0.435-0.987-0.572-0.008 0-0.008 0.008 0 0.008 0.375 0.153 0.75 0.351 1.010 0.671 0.092 0.488 0.168 0.984 0.237 1.472-0.191-0.198-0.429-0.336-0.697-0.397-0.008 0-0.015 0.008-0.008 0.015 0.276 0.076 0.513 0.237 0.704 0.45 0 0 0 0 0.008 0 0.023 0.175 0.046 0.351 0.069 0.519-0.145-0.122-0.306-0.221-0.49-0.29-0.008 0-0.008 0.008 0 0.008 0.184 0.076 0.344 0.191 0.49 0.32h0.008c0.023 0.168 0.038 0.328 0.054 0.496-0.268-0.32-0.597-0.557-0.987-0.702-0.008 0-0.015 0.008-0.008 0.015 0.383 0.168 0.72 0.427 0.972 0.748 0.008 0.008 0.015 0.008 0.023 0.008 0.023 0.252 0.046 0.511 0.069 0.763 0 0 0.008 0.008 0.008 0-0.023-0.252-0.038-0.511-0.061-0.77z"></path>
<path fill="#ffc727" style="fill: var(--color2, #ffc727)" d="M7.218 18.574c-0.49 0.343-0.957 0.732-1.347 1.175-0.421 0.473-0.735 1.007-0.949 1.602-0.444 1.22-0.681 2.532-0.704 3.829-0.015 0.725 0.054 1.442 0.207 2.151 0.008 0.023 0.046 0.015 0.038-0.008-0.191-1.243-0.184-2.517 0.023-3.761 0.199-1.22 0.513-2.548 1.294-3.539 0.421-0.542 0.949-0.969 1.477-1.404 0.023-0.031-0.015-0.069-0.038-0.046z"></path>
<path fill="#ffc727" style="fill: var(--color2, #ffc727)" d="M4.386 24.303c0 0 0.398-0.671 0.987-1.251 0.582-0.58 1.079-0.992 1.148-1.381 0.077-0.381-0.582-0.671-0.582-0.671s0.811 0.145 1.026-0.191c0.222-0.336 0.329-2.296 0.329-2.296s-1.47 1.045-2.151 2.51c-0.689 1.465-0.758 3.28-0.758 3.28z"></path>
<path fill="#263238" style="fill: var(--color6, #263238)" d="M6.782 19.009c-0.62 0.603-1.24 1.251-1.607 2.044-0.122 0.275-0.23 0.557-0.322 0.847-0.015 0.061-0.038 0.114-0.054 0.175v0.008c-0.184 0.595-0.306 1.205-0.421 1.808 0 0.008 0.008 0.008 0.008 0 0.061-0.305 0.13-0.61 0.214-0.923h0.008c0.122-0.053 0.253-0.084 0.383-0.099 0.008 0 0.008-0.015 0-0.015-0.13 0.008-0.26 0.030-0.383 0.069 0.069-0.275 0.145-0.557 0.237-0.824 0.283-0.069 0.582-0.107 0.873-0.114v-0.008c-0.291-0.015-0.574 0.015-0.857 0.076 0.015-0.046 0.031-0.092 0.046-0.137 0.191-0.046 0.383-0.076 0.582-0.099v-0.008c-0.191 0.008-0.383 0.023-0.566 0.069 0.077-0.237 0.168-0.465 0.26-0.694 0.077-0.191 0.176-0.366 0.276-0.534 0.161-0.038 0.306-0.069 0.467-0.084 0.008 0 0.008-0.008 0-0.008-0.145-0.008-0.299 0-0.436 0.046 0.077-0.122 0.161-0.244 0.245-0.366 0.329-0.076 0.666-0.137 1.003-0.076 0.008 0 0.008-0.008 0-0.008-0.322-0.084-0.643-0.038-0.957 0.031 0.038-0.046 0.069-0.092 0.107-0.137 0.199-0.061 0.406-0.092 0.612-0.099 0.008 0 0.008-0.008 0-0.008-0.191-0.015-0.39 0-0.574 0.053 0.276-0.336 0.574-0.656 0.873-0.969 0.015-0.023 0-0.030-0.015-0.015z"></path>
<path fill="#263238" style="fill: var(--color6, #263238)" d="M6.767 20.344c-0.1-0.008-0.191-0.023-0.291-0.008-0.015 0-0.008 0.023 0 0.023 0.099 0 0.191-0.008 0.291 0 0.008 0 0.008-0.015 0-0.015z"></path>
<path fill="#263238" style="fill: var(--color6, #263238)" d="M5.71 22.244c-0.153 0-0.306 0.038-0.452 0.092v0.008c0.153-0.038 0.299-0.053 0.452-0.076 0.015 0 0.015-0.023 0-0.023z"></path>
<path fill="#263238" style="fill: var(--color6, #263238)" d="M5.389 21.588c-0.061 0-0.13 0.008-0.191 0.015-0.008 0-0.008 0.008 0 0.008 0.061 0 0.13 0 0.191-0.008 0.015 0 0.015-0.015 0-0.015z"></path>
<path fill="#ffc727" style="fill: var(--color2, #ffc727)" d="M0.077 20.649c0.475 0.16 0.942 0.374 1.363 0.641 0.452 0.282 0.827 0.648 1.141 1.076 0.643 0.885 1.141 1.892 1.462 2.937 0.176 0.587 0.291 1.182 0.329 1.793 0 0.023-0.031 0.023-0.031 0-0.138-1.053-0.436-2.083-0.888-3.044-0.444-0.938-1.010-1.945-1.868-2.571-0.467-0.343-0.995-0.564-1.523-0.793-0.031-0.008-0.015-0.046 0.015-0.038z"></path>
<path fill="#ffc727" style="fill: var(--color2, #ffc727)" d="M3.697 24.631c0 0-0.482-0.45-1.087-0.786s-1.102-0.557-1.255-0.854c-0.153-0.298 0.321-0.679 0.321-0.679s-0.62 0.305-0.88 0.084c-0.253-0.221-0.796-1.777-0.796-1.777s1.431 0.511 2.327 1.533c0.896 1.030 1.37 2.479 1.37 2.479z"></path>
<path fill="#263238" style="fill: var(--color6, #263238)" d="M3.621 24.311c-0.72-1.342-1.669-2.555-2.978-3.349 0.344 0.221 0.666 0.473 0.957 0.748-0.268-0.008-0.536 0.038-0.773 0.16-0.008 0 0 0.008 0.008 0.008 0.26-0.092 0.513-0.145 0.788-0.13 0.008 0 0.008 0 0.008 0 0.046 0.046 0.092 0.092 0.138 0.137-0.138 0.008-0.276 0.023-0.413 0.053v0.008c0.145-0.030 0.291-0.038 0.436-0.038 0.237 0.237 0.467 0.496 0.674 0.763-0.092-0.015-0.199-0.008-0.291 0.023-0.008 0-0.008 0.015 0 0.008 0.107-0.015 0.207-0.008 0.306-0.008 0.038 0.053 0.077 0.099 0.115 0.153-0.291-0.015-0.582 0.008-0.873 0.084-0.008 0 0 0.008 0 0.008 0.299-0.061 0.589-0.076 0.896-0.061 0.038 0.046 0.069 0.099 0.107 0.145-0.176-0.008-0.344 0.015-0.521 0.061-0.008 0-0.008 0.015 0 0.008 0.176-0.038 0.352-0.053 0.536-0.038 0.153 0.214 0.299 0.427 0.444 0.648-0.077-0.015-0.153-0.008-0.23 0.015-0.008 0 0 0.008 0 0.008 0.084-0.008 0.161 0 0.245 0.015 0.13 0.198 0.253 0.397 0.367 0.595 0.038 0.008 0.061-0.008 0.054-0.023z"></path>
<path fill="#263238" style="fill: var(--color6, #263238)" d="M2.511 23.197c-0.138-0.015-0.283 0.008-0.413 0.053v0.008c0.138-0.023 0.276-0.038 0.413-0.046 0.008 0 0.008-0.015 0-0.015z"></path>
<path fill="#263238" style="fill: var(--color6, #263238)" d="M1.255 21.565c-0.061-0.008-0.13 0-0.191 0.008-0.008 0-0.008 0.015 0 0.008 0.061-0.008 0.122-0.008 0.191-0.008 0.015 0.008 0.015-0.008 0-0.008z"></path>
<path fill="#455a64" style="fill: var(--color8, #455a64)" d="M5.542 29.063h-3.23l0.459-3.364 0.115-0.862h2.082l0.115 0.862 0.459 3.364z"></path>
<path fill="#263238" style="fill: var(--color6, #263238)" d="M5.083 25.699h-2.312l0.115-0.862h2.082l0.115 0.862z"></path>
<path fill="#455a64" style="fill: var(--color8, #455a64)" d="M5.266 24.532h-2.671v0.732h2.671v-0.732z"></path>
</symbol>
<symbol id="icon-ellipse-2" viewBox="0 0 46 32">
<path fill="#ffd8d0" style="fill: var(--color7, #ffd8d0)" d="M46.129 22.271c-7.358 10.303-20.68 11.612-31.934 7.663-12.91-5.201-17.085-19.758-12.185-31.92 4.546-11.283 18.067-6.878 29.616-7.181 21.37-0.39 28.445 13.301 14.503 31.439z"></path>
</symbol>
<symbol id="icon-ellipse-1" viewBox="0 0 48 32">
<path fill="#c5baff" style="fill: var(--color19, #c5baff)" d="M41.001 34.876c-7.38 12.553-22.509 15.409-35.804 12.032-15.32-4.643-21.586-20.896-17.211-35.328 4.058-13.389 19.997-9.72 33.197-11.244 24.443-2.624 33.942 12.341 19.818 34.54z"></path>
</symbol>
<symbol id="icon-wallet" viewBox="0 0 32 32">
<path fill="#24cca7" style="fill: var(--color5, #24cca7)" d="M3.755 7.619l16.211-4.537-0.859-1.779c-0.562-1.157-1.932-1.634-3.060-1.058l-14.513 7.375h2.219z"></path>
<path fill="#24cca7" style="fill: var(--color5, #24cca7)" d="M24.813 3.048c-0.195 0-0.391 0.029-0.586 0.087l-15.012 4.484h18.431l-0.693-2.779c-0.266-1.083-1.163-1.793-2.14-1.793z"></path>
<path fill="#4a56e2" style="fill: var(--color1, #4a56e2)" d="M28.36 8.573h-26.559c-0.568 0-1.074 0.26-1.405 0.67-0.151 0.189-0.266 0.406-0.331 0.645-0.040 0.15-0.065 0.307-0.065 0.467v19.862c0 0.984 0.805 1.783 1.797 1.783h26.559c0.992 0 1.797-0.799 1.797-1.783v-4.973h-10.662c-1.685 0-3.054-1.358-3.054-3.030v-3.964c0-0.82 0.331-1.565 0.866-2.111 0.474-0.485 1.11-0.813 1.822-0.895 0.119-0.014 0.241-0.021 0.363-0.021h10.666v-4.867c0.004-0.984-0.801-1.783-1.793-1.783z"></path>
<path fill="#4a56e2" style="fill: var(--color1, #4a56e2)" d="M31.414 16.926c-0.18-0.164-0.392-0.289-0.629-0.371-0.183-0.061-0.377-0.096-0.582-0.096h-10.712c-0.992 0-1.797 0.799-1.797 1.783v3.968c0 0.984 0.805 1.783 1.797 1.783h10.712c0.205 0 0.399-0.036 0.582-0.096 0.237-0.078 0.449-0.207 0.629-0.371 0.359-0.324 0.586-0.795 0.586-1.316v-3.968c0-0.52-0.226-0.991-0.586-1.316zM23.243 20.581c0 0.492-0.402 0.891-0.898 0.891h-0.597c-0.496 0-0.898-0.399-0.898-0.891v-0.592c0-0.285 0.133-0.538 0.345-0.699 0.154-0.118 0.345-0.193 0.553-0.193h0.597c0.496 0 0.898 0.399 0.898 0.891v0.592z"></path>
</symbol>
</defs>
</svg>
